<?xml version="1.0" encoding="iso-8859-1"?>
<!-- Generator: Adobe Illustrator 21.1.0, SVG Export Plug-In . SVG Version: 6.00 Build 0)  -->
<svg version="1.1" id="Calque_1" xmlns="http://www.w3.org/2000/svg" xmlns:xlink="http://www.w3.org/1999/xlink" x="0px" y="0px"
	 width="432px" height="432px" viewBox="0 0 432 432" enable-background="new 0 0 432 432" xml:space="preserve">
<g>
	<path fill="#B78D5C" d="M392.24,238.32c-0.775-1.092-1.773-1.868-2.844-2.524c-2.503-1.533-5.244-2.283-8.09-2.634
		c-3.471-0.424-6.966-0.252-10.451,0.053c-5.839,0.517-11.54,1.587-17.126,2.796c-2.28,0.5-4.64,0.846-6.981,1.231
		c-0.991,0.164-1.976,0.356-2.935,0.589c-0.98,0.239-1.391,0.655-1.329,1.255c0.075,0.725,0.705,1.053,1.435,1.252
		c2.429,0.661,4.843,1.399,7.293,1.975c4.035,0.948,8.094,1.79,12.15,2.688c3.042,0.516,6.09,1.034,9.138,1.551
		c3.466,0.584,6.946,1.014,10.471,0.998c1.868-0.01,3.729-0.166,5.555-0.786c1.15-0.391,2.234-0.95,3.157-1.888
		c0.696-0.721,1.286-1.565,1.468-2.627C393.439,240.737,393.039,239.445,392.24,238.32z M388.77,242.7
		c-1.556,0.86-3.222,1.134-4.881,1.169c-2.591,0.055-5.185,0.044-7.759-0.138c-7.837-0.553-15.571-1.813-23.26-3.377l-4.224-0.917
		c-0.287-0.064-0.563-0.176-0.844-0.266l0.04-0.137c0.428-0.089,0.849-0.215,1.286-0.266c4.302-0.506,8.65-1.168,12.912-1.827
		c4.655-0.708,9.383-1.119,14.142-1.091c3.293,0.022,6.538,0.382,9.606,1.73c1.225,0.539,2.382,1.215,3.36,2.219
		C390.357,241.045,390.278,241.851,388.77,242.7z"/>
	<path fill="#B78D5C" d="M364.664,260.499c1.611-0.553,2.551-1.967,2.49-3.695c-0.036-0.898-0.319-1.703-0.747-2.471
		c-0.883-1.549-2.045-2.84-3.399-3.948c-1.768-1.445-3.703-2.623-5.761-3.585c-4.556-2.127-9.272-3.736-14.108-5.229
		c-0.831-0.257-1.676-0.477-2.522-0.679c-0.64-0.153-1.274-0.169-1.699,0.276c-0.473,0.467-0.279,0.994,0.04,1.511
		c0.18,0.292,0.363,0.589,0.591,0.861c0.51,0.61,1.011,1.237,1.579,1.824c3.287,3.358,6.743,6.52,10.478,9.642
		c0.994,0.832,2.085,1.582,3.174,2.321c1.765,1.197,3.603,2.286,5.677,2.894c0.431,0.133,0.855,0.296,1.293,0.391
		C362.73,260.826,363.707,260.829,364.664,260.499z M357.016,255.179c-1.831-1.077-3.546-2.294-5.131-3.635
		c-2.927-2.471-5.974-4.901-8.613-7.494c-0.181-0.177-0.354-0.361-0.521-0.546c-0.029-0.031-0.011-0.091-0.022-0.216
		c0.33,0.09,0.651,0.143,0.937,0.262c4.056,1.692,8.11,3.437,12.104,5.344c1.836,0.876,3.531,2.01,5.108,3.315
		c1.084,0.889,2.005,1.885,2.659,3.088c0.197,0.36,0.376,0.743,0.482,1.139c0.183,0.685-0.052,1.029-0.776,1.081
		c-0.438,0.032-0.898-0.032-1.329-0.133C360.135,256.965,358.562,256.088,357.016,255.179z"/>
	<path fill="#B78D5C" d="M366.598,228.898c1.025-0.57,1.938-1.363,2.844-2.142c0.661-0.568,1.158-1.301,1.438-2.152
		c0.482-1.469-0.131-2.722-1.555-3.287c-0.687-0.271-1.442-0.367-2.166-0.539l-0.026,0.069c-0.478,0.034-0.957,0.053-1.433,0.105
		c-2.202,0.24-4.249,0.953-6.235,1.764c-7.114,2.863-12.809,6.927-18.247,11.035c-0.526,0.402-0.919,0.9-1.387,1.35
		c-0.203,0.19-0.325,0.427-0.112,0.661c0.347,0.381,0.705,0.765,1.409,0.648c0.373-0.062,0.777-0.021,1.154-0.076
		c7.956-1.174,13.946-3.009,18.553-4.702C362.873,230.89,364.726,229.933,366.598,228.898z M352.01,231.958
		c-2.451,0.743-4.913,1.387-7.396,1.914c-0.277,0.052-0.555,0.103-1.038,0.194c0.257-0.221,0.354-0.329,0.478-0.408
		c3.143-1.999,6.412-4.118,9.714-6.118c2.906-1.722,6.044-3.183,9.476-4.093c1.05-0.283,2.154-0.437,3.247-0.553
		c0.732-0.077,1.492,0.018,2.181,0.642c-0.223,0.348-0.428,0.729-0.718,0.997c-0.62,0.562-1.264,1.101-1.953,1.563
		c-2.111,1.413-4.408,2.436-6.728,3.346C356.926,230.375,354.455,231.214,352.01,231.958z"/>
	<path fill="#B78D5C" d="M375.894,285.791c-1.939-2.209-4.335-3.737-6.949-4.916c-3.189-1.434-6.578-2.304-9.995-3.045
		c-5.727-1.236-11.485-1.902-17.172-2.403c-2.327-0.201-4.718-0.586-7.048-0.903c-0.993-0.137-1.989-0.245-2.973-0.305
		c-1.005-0.062-1.519,0.215-1.635,0.808c-0.14,0.717,0.365,1.216,1.004,1.624c2.125,1.352,4.212,2.773,6.381,4.051
		c3.573,2.103,7.2,4.11,10.808,6.171c2.752,1.395,5.509,2.793,8.265,4.191c3.136,1.586,6.332,3.028,9.7,4.057
		c1.785,0.544,3.607,0.946,5.532,0.893c1.212-0.033,2.411-0.247,3.567-0.87c0.885-0.48,1.664-1.126,2.197-2.066
		c0.72-1.361,0.719-2.715,0.288-4.029C377.448,287.775,376.723,286.736,375.894,285.791z M373.237,292.2
		c-1.737,0.362-3.407,0.13-5.001-0.328c-2.49-0.715-4.962-1.494-7.365-2.431c-7.317-2.851-14.328-6.348-21.209-10.122l-3.762-2.129
		c-0.256-0.146-0.486-0.335-0.728-0.505l0.079-0.119c0.434,0.041,0.873,0.046,1.305,0.126c4.239,0.784,8.611,1.451,12.884,2.09
		c4.651,0.703,9.286,1.71,13.822,3.148c3.138,0.997,6.13,2.302,8.663,4.501c1.011,0.879,1.916,1.868,2.554,3.118
		C375.263,291.098,374.96,291.851,373.237,292.2z"/>
	<path fill="#B78D5C" d="M342.129,301.295c0.873,0.495,1.826,0.8,2.843,0.772c1.697-0.055,3.004-1.133,3.446-2.808
		c0.23-0.869,0.182-1.731,0.013-2.585c-0.323-1.704-1.104-3.314-2.058-4.766c-1.265-1.908-2.769-3.608-4.45-5.139
		c-3.718-3.381-7.776-6.334-11.916-9.176c-0.714-0.489-1.453-0.949-2.2-1.393c-0.562-0.334-1.175-0.544-1.728-0.253
		c-0.587,0.309-0.555,0.871-0.402,1.462c0.087,0.333,0.175,0.672,0.313,1.001c0.309,0.736,0.605,1.486,0.976,2.217
		c0.526,1.04,1.085,2.083,1.655,3.118c0.548,1.022,1.121,2.044,1.714,3.066c1.186,2.044,2.455,4.089,3.78,6.136
		c0.706,1.092,1.529,2.133,2.353,3.162c1.339,1.671,2.734,3.229,4.542,4.429C341.381,300.792,341.738,301.073,342.129,301.295z
		 M339.222,294.709c-1.433-1.574-2.715-3.247-3.837-5.002c-2.031-3.209-4.224-6.436-5.992-9.707
		c-0.121-0.224-0.232-0.451-0.338-0.678c-0.018-0.039,0.016-0.091,0.042-0.214c0.289,0.185,0.58,0.33,0.818,0.529
		c3.377,2.823,6.735,5.694,9.989,8.702c1.494,1.381,2.787,2.973,3.902,4.684c0.738,1.15,1.322,2.373,1.601,3.724
		c0.084,0.403,0.143,0.823,0.129,1.234c-0.024,0.711-0.348,0.971-1.054,0.807c-0.427-0.099-0.847-0.296-1.229-0.52
		C341.678,297.342,340.433,296.036,339.222,294.709z"/>
	<path fill="#B78D5C" d="M341.44,273.403c3.172,0.13,5.973,0.079,8.409-0.054c2.158-0.107,4.239-0.46,6.321-0.9
		c1.147-0.242,2.253-0.728,3.349-1.205c0.799-0.348,1.49-0.901,2.01-1.631c0.891-1.263,0.681-2.64-0.513-3.601
		c-0.576-0.462-1.269-0.776-1.91-1.155l-0.045,0.058c-0.467-0.108-0.93-0.232-1.4-0.323c-2.175-0.42-4.342-0.345-6.48-0.158
		c-3.781,0.326-7.423,1.008-10.801,1.935c-0.849,0.23-1.68,0.477-2.508,0.732c-0.852,0.245-1.692,0.501-2.521,0.767
		c-1.659,0.532-3.274,1.101-4.851,1.691c-0.613,0.231-1.145,0.585-1.743,0.867c-0.249,0.122-0.435,0.313-0.3,0.6
		c0.22,0.467,0.45,0.941,1.155,1.038c0.374,0.051,0.748,0.21,1.124,0.269C334.737,272.967,338.275,273.276,341.44,273.403z
		 M333.232,270.313c3.575-0.983,7.343-2.028,11.085-2.958c3.282-0.783,6.712-1.248,10.257-1.103c1.087,0.04,2.187,0.22,3.266,0.432
		c0.722,0.143,1.42,0.458,1.893,1.257c-0.313,0.268-0.624,0.57-0.978,0.741c-0.758,0.354-1.533,0.678-2.327,0.915
		c-2.433,0.726-4.929,1.023-7.413,1.203c-5.109,0.359-10.28,0.341-15.31-0.116c-0.28-0.033-0.56-0.066-1.048-0.123
		C332.966,270.426,333.09,270.351,333.232,270.313z"/>
	<path fill="#B78D5C" d="M343.012,322.763c-2.625-2.311-5.603-4.138-8.645-5.849c-5.115-2.875-10.359-5.151-15.701-7.351
		c-2.199-0.907-4.336-1.946-6.473-2.935c-0.907-0.42-1.824-0.813-2.743-1.156c-0.939-0.351-1.508-0.233-1.789,0.306
		c-0.334,0.656-0.013,1.268,0.477,1.844c1.627,1.911,3.196,3.875,4.892,5.731c2.792,3.055,5.668,6.039,8.508,9.066
		c2.222,2.144,4.448,4.293,6.675,6.441c2.534,2.44,5.17,4.764,8.104,6.754c1.555,1.054,3.167,1.963,5.018,2.477
		c1.164,0.321,2.367,0.466,3.648,0.205c0.983-0.2,1.904-0.6,2.692-1.339c1.139-1.039,1.516-2.35,1.484-3.736
		c-0.031-1.345-0.423-2.554-0.94-3.704C347.006,326.83,345.163,324.66,343.012,322.763z M343.788,334.842
		c-1.759-0.159-3.283-0.869-4.669-1.774c-2.165-1.413-4.296-2.882-6.316-4.482c-6.149-4.872-11.822-10.274-17.289-15.906
		l-2.971-3.143c-0.201-0.215-0.366-0.464-0.548-0.697l0.109-0.092c0.402,0.166,0.818,0.297,1.207,0.5
		c3.826,1.997,7.754,3.87,11.7,5.784c4.277,2.076,8.367,4.366,12.285,7.082c2.702,1.875,5.177,4.004,6.957,6.856
		c0.71,1.139,1.288,2.354,1.536,3.74C346.075,334.413,345.513,334.995,343.788,334.842z"/>
	<path fill="#B78D5C" d="M315.472,320.456c-2.569-4.333-5.585-8.354-8.711-12.292c-0.539-0.678-1.111-1.336-1.695-1.979
		c-0.439-0.485-0.962-0.865-1.573-0.743c-0.647,0.128-0.779,0.681-0.802,1.295c-0.013,0.347-0.026,0.7,0.011,1.056
		c0.083,0.8,0.149,1.608,0.292,2.42c0.746,4.549,1.865,9.167,3.216,13.882c0.349,1.244,0.815,2.461,1.292,3.678
		c0.771,1.967,1.668,3.891,3.039,5.562c0.281,0.352,0.539,0.725,0.848,1.052c0.692,0.731,1.503,1.29,2.49,1.57
		c1.677,0.493,3.237-0.16,4.134-1.652c0.469-0.77,0.671-1.614,0.756-2.485c0.162-1.756-0.024-3.427-0.537-5.125
		C317.577,324.491,316.634,322.418,315.472,320.456z M315.869,331.014c-0.036,0.412-0.101,0.834-0.232,1.226
		c-0.227,0.677-0.611,0.834-1.235,0.473c-0.378-0.219-0.721-0.53-1.021-0.856c-1.233-1.345-2.043-2.962-2.814-4.59
		c-0.912-1.93-1.653-3.912-2.216-5.927c-1.038-3.709-2.088-7.328-2.865-11.03c-0.051-0.251-0.092-0.502-0.127-0.752
		c-0.006-0.042,0.041-0.083,0.101-0.194c0.222,0.261,0.457,0.485,0.627,0.746c2.405,3.698,4.778,7.436,7.012,11.275
		c1.033,1.771,1.764,3.63,2.317,5.581C315.787,328.285,315.991,329.632,315.869,331.014z"/>
	<path fill="#B78D5C" d="M307.682,300.943c-0.271,0.045-0.504,0.176-0.458,0.492c0.075,0.515,0.158,1.039,0.802,1.336
		c0.342,0.157,0.652,0.419,0.993,0.585c3.595,1.74,6.975,3.156,9.943,4.19c2.984,1.048,5.667,1.816,8.026,2.4
		c2.057,0.502,4.232,0.846,6.334,1.027c1.163,0.104,2.357-0.04,3.538-0.176c0.862-0.1,1.679-0.428,2.385-0.977
		c0.608-0.473,0.984-1.041,1.1-1.648c0.099-0.62-0.063-1.28-0.498-1.921c-0.415-0.612-0.985-1.118-1.486-1.67l-0.06,0.043
		c-0.413-0.241-0.82-0.496-1.241-0.722c-1.963-1.051-4.014-1.589-6.156-2.074c-3.748-0.834-7.378-1.216-10.875-1.319
		c-3.567-0.159-7.032-0.059-10.4,0.139C308.958,300.673,308.324,300.836,307.682,300.943z M312.033,302.182
		c3.686,0.09,7.568,0.172,11.465,0.425c3.355,0.207,6.753,0.761,10.095,1.945c1.037,0.368,2.042,0.869,3.016,1.395
		c0.652,0.352,1.222,0.858,1.42,1.747c-0.397,0.149-0.765,0.361-1.157,0.416c-0.824,0.117-1.656,0.202-2.481,0.197
		c-2.536-0.023-4.973-0.446-7.43-1.029c-5.04-1.205-9.909-2.685-14.586-4.602c-0.261-0.116-0.522-0.233-0.977-0.436
		C311.743,302.21,311.889,302.18,312.033,302.182z"/>
	<path fill="#B78D5C" d="M305.945,355.18c-1.832-2.98-4.139-5.596-6.542-8.118c-2.014-2.111-4.114-4.105-6.26-6.018
		c-2.15-1.921-4.378-3.815-6.602-5.639c-1.83-1.504-3.564-3.118-5.31-4.684c-0.741-0.665-1.5-1.306-2.275-1.9
		c-0.79-0.604-1.365-0.653-1.808-0.254c-0.529,0.494-0.395,1.185-0.097,1.88c0.995,2.307,1.919,4.648,2.994,6.921
		c1.771,3.743,3.643,7.441,5.468,11.17c1.493,2.702,2.989,5.41,4.485,8.117c1.704,3.076,3.54,6.071,5.756,8.829
		c1.175,1.461,2.462,2.828,4.094,3.886c1.025,0.661,2.123,1.134,3.422,1.255c0.995,0.09,1.99-0.029,2.956-0.513
		c1.376-0.693,2.157-1.779,2.542-3.1c0.361-1.303,0.338-2.579,0.178-3.835C308.573,360.244,307.445,357.625,305.945,355.18z
		 M305.669,365.491c-0.23,1.706-0.928,2.116-2.531,1.469c-1.63-0.659-2.876-1.781-3.935-3.05c-1.653-1.983-3.256-4.009-4.715-6.13
		c-4.439-6.45-8.286-13.306-11.851-20.284l-1.914-3.872c-0.129-0.265-0.214-0.552-0.32-0.829l0.13-0.057
		c0.334,0.275,0.693,0.521,1.003,0.827c3.062,3.021,6.258,5.952,9.461,8.928c3.469,3.224,6.762,6.705,9.69,10.418
		c2.031,2.582,3.771,5.343,4.64,8.6C305.67,362.804,305.853,364.114,305.669,365.491z"/>
	<path fill="#B78D5C" d="M275.585,330.574c-0.316-0.808-0.67-1.605-1.039-2.392c-0.278-0.593-0.665-1.109-1.28-1.167
		c-0.652-0.062-0.937,0.432-1.136,1.017c-0.112,0.33-0.227,0.666-0.295,1.02c-0.147,0.805-0.337,1.561-0.446,2.365
		c-0.313,2.278-0.537,4.614-0.693,6.995c-0.155,2.385-0.243,4.816-0.318,7.206c-0.036,1.285,0.055,2.597,0.153,3.901
		c0.159,2.113,0.45,4.22,1.267,6.221c0.165,0.419,0.301,0.852,0.5,1.255c0.445,0.902,1.054,1.673,1.913,2.227
		c1.435,0.911,3.17,0.869,4.45-0.332c0.672-0.606,1.111-1.359,1.447-2.172c0.673-1.631,0.967-3.326,0.995-5.06
		c0.045-2.248-0.259-4.533-0.794-6.752C279.123,339.999,277.419,335.262,275.585,330.574z M277.578,355.109
		c-0.155,0.386-0.34,0.773-0.579,1.112c-0.411,0.593-0.828,0.62-1.324,0.077c-0.299-0.326-0.536-0.726-0.726-1.127
		c-0.784-1.654-1.072-3.417-1.325-5.191c-0.305-2.118-0.432-4.237-0.382-6.338c0.083-3.885,0.153-7.634,0.51-11.368
		c0.024-0.256,0.058-0.51,0.096-0.76c0.006-0.043,0.063-0.068,0.152-0.158c0.135,0.315,0.294,0.599,0.38,0.898
		c1.218,4.254,2.392,8.536,3.374,12.811c0.455,1.973,0.619,3.99,0.573,6.02C278.297,352.462,278.098,353.816,277.578,355.109z"/>
	<path fill="#B78D5C" d="M290.5,327.156c-1.682-0.599-3.354-1.124-5.011-1.593c-1.65-0.444-3.306-0.89-4.971-1.338
		c-0.646-0.169-1.296-0.193-1.937-0.274c-0.271-0.034-0.53,0.025-0.577,0.343c-0.077,0.517-0.149,1.046,0.377,1.517
		c0.279,0.25,0.499,0.591,0.775,0.848c2.926,2.723,5.701,5.003,8.27,6.925c2.574,1.928,4.879,3.393,6.964,4.647
		c1.822,1.088,3.765,2.002,5.753,2.839c1.103,0.473,2.284,0.683,3.445,0.886c0.849,0.152,1.723,0.071,2.553-0.255
		c1.433-0.562,2.082-1.752,1.636-3.218c-0.212-0.7-0.607-1.348-0.921-2.018l-0.071,0.021c-0.326-0.353-0.64-0.717-0.978-1.058
		c-1.567-1.579-3.415-2.755-5.304-3.825c-1.664-0.941-3.332-1.764-4.996-2.49C293.843,328.386,292.195,327.775,290.5,327.156z
		 M302.279,335c0.882,0.653,1.694,1.425,2.469,2.212c0.519,0.527,0.916,1.179,0.848,2.092c-0.421,0.029-0.832,0.127-1.221,0.068
		c-0.819-0.124-1.635-0.282-2.419-0.524c-2.388-0.722-4.642-1.914-6.82-3.194c-2.225-1.304-4.389-2.662-6.484-4.093
		c-1.048-0.717-2.075-1.444-3.091-2.206c-1.025-0.776-2.031-1.572-3.017-2.389c-0.214-0.187-0.429-0.374-0.803-0.7
		c0.336,0.07,0.483,0.081,0.624,0.131c1.796,0.664,3.561,1.213,5.368,1.826c1.805,0.609,3.635,1.253,5.48,1.975
		C296.38,331.414,299.43,332.886,302.279,335z"/>
	<path fill="#B78D5C" d="M257.101,365.576c-2.587-5.184-5.668-10.154-8.833-14.96c-1.301-1.974-2.476-4.025-3.678-6.033
		c-0.51-0.852-1.044-1.687-1.607-2.482c-0.578-0.825-1.119-1.075-1.657-0.809c-0.651,0.319-0.728,1.02-0.649,1.771
		c0.266,2.499,0.454,5.01,0.807,7.501c0.582,4.101,1.273,8.188,1.909,12.291c0.624,3.023,1.25,6.052,1.875,9.081
		c0.715,3.443,1.58,6.846,2.878,10.135c0.689,1.742,1.512,3.428,2.756,4.918c0.785,0.943,1.702,1.763,2.903,2.241
		c0.923,0.377,1.908,0.553,2.974,0.372c1.52-0.258,2.584-1.081,3.347-2.219c0.744-1.091,1.096-2.335,1.315-3.583
		c0.511-2.922,0.209-5.761-0.5-8.541C260.076,371.87,258.648,368.691,257.101,365.576z M258.471,381.103
		c-0.059,1.331-0.27,2.646-0.854,3.909c-0.725,1.567-1.513,1.756-2.851,0.668c-1.361-1.107-2.218-2.545-2.852-4.07
		c-0.991-2.384-1.918-4.782-2.687-7.258c-2.334-7.515-3.971-15.182-5.307-22.91l-0.679-4.265c-0.045-0.291-0.04-0.587-0.059-0.881
		l0.143-0.009c0.239,0.368,0.511,0.724,0.717,1.108c2.025,3.785,4.206,7.523,6.381,11.308c2.357,4.105,4.464,8.378,6.17,12.831
		C257.771,374.616,258.615,377.769,258.471,381.103z"/>
	<path fill="#B78D5C" d="M238.958,340.163c-0.089-0.649-0.306-1.256-0.876-1.491c-0.604-0.25-1.022,0.14-1.385,0.642
		c-0.205,0.284-0.414,0.571-0.584,0.891c-0.385,0.688-0.789,1.371-1.132,2.104c-0.975,2.087-1.882,4.256-2.738,6.487
		c-0.428,1.116-0.843,2.247-1.248,3.391c-0.397,1.128-0.796,2.258-1.194,3.39c-0.415,1.218-0.717,2.498-1.01,3.773
		c-0.474,2.066-0.82,4.165-0.631,6.318c0.033,0.449,0.036,0.903,0.106,1.347c0.158,0.993,0.512,1.91,1.168,2.693
		c1.101,1.298,2.768,1.757,4.349,1.01c0.82-0.381,1.463-0.972,2.024-1.651c1.125-1.362,1.908-2.896,2.45-4.545
		c0.707-2.15,1.103-4.367,1.248-6.664c0.322-5.044,0.099-10.076-0.262-15.099C239.178,341.89,239.077,341.024,238.958,340.163z
		 M237.014,357.229c-0.151,2.02-0.593,3.998-1.237,5.925c-0.437,1.308-1.028,2.544-1.907,3.628
		c-0.262,0.324-0.553,0.639-0.882,0.893c-0.568,0.449-0.977,0.322-1.289-0.331c-0.189-0.399-0.297-0.852-0.36-1.292
		c-0.259-1.81-0.012-3.586,0.272-5.347c0.338-2.094,0.843-4.172,1.515-6.162c1.232-3.678,2.406-7.282,3.863-10.696
		c0.099-0.238,0.206-0.471,0.317-0.7c0.019-0.039,0.08-0.047,0.192-0.107c0.036,0.341,0.103,0.659,0.097,0.971
		C237.499,348.453,237.341,352.835,237.014,357.229z"/>
	<path fill="#B78D5C" d="M267.273,357.623c-0.207-0.433-0.399-0.874-0.621-1.299c-1.029-1.969-2.445-3.632-3.93-5.206
		c-2.62-2.776-5.375-5.047-8.238-7.216c-2.852-2.13-5.738-3.904-8.655-5.753c-0.566-0.349-1.178-0.562-1.765-0.826
		c-0.248-0.112-0.512-0.13-0.651,0.161c-0.226,0.473-0.451,0.959-0.089,1.564c0.193,0.32,0.301,0.711,0.489,1.038
		c1.984,3.459,3.955,6.452,5.837,9.041c0.94,1.291,1.862,2.497,2.745,3.58c0.879,1.07,1.727,2.049,2.534,2.945
		c1.416,1.571,2.999,3.013,4.648,4.392c0.907,0.755,1.986,1.349,3.04,1.904c0.765,0.392,1.621,0.566,2.508,0.494
		c1.532-0.125,2.501-1.08,2.507-2.615c0.004-0.733-0.182-1.47-0.285-2.204L267.273,357.623z M265.31,359.983
		c-0.41-0.094-0.831-0.119-1.184-0.288c-0.744-0.356-1.476-0.743-2.151-1.203c-2.075-1.421-3.884-3.256-5.577-5.096
		c-1.736-1.896-3.398-3.826-4.971-5.805c-1.574-1.979-3.082-4.099-4.477-6.227c-0.149-0.242-0.299-0.483-0.559-0.904
		c0.3,0.165,0.437,0.218,0.556,0.307c3.033,2.323,6.127,4.356,9.226,6.839c2.684,2.163,5.146,4.427,7.241,7.286
		c0.648,0.881,1.195,1.858,1.703,2.837C265.456,358.385,265.644,359.126,265.31,359.983z"/>
	<path fill="#B78D5C" d="M209.44,362.233c-0.693-2.824-1.469-5.624-2.279-8.39c-0.666-2.273-1.19-4.583-1.752-6.86
		c-0.238-0.966-0.505-1.924-0.812-2.851c-0.313-0.949-0.763-1.3-1.354-1.223c-0.716,0.109-0.995,0.755-1.139,1.497
		c-0.477,2.466-1.031,4.921-1.422,7.405c-0.643,4.09-1.178,8.2-1.769,12.31c-0.287,3.074-0.575,6.154-0.863,9.234
		c-0.323,3.502-0.492,7.011-0.214,10.539c0.148,1.869,0.442,3.725,1.195,5.519c0.476,1.112,1.115,2.129,2.119,2.958
		c0.771,0.635,1.659,1.096,2.728,1.24c1.525,0.205,2.781-0.264,3.841-1.124c1.03-0.865,1.729-1.942,2.303-3.068
		c1.342-2.639,1.887-5.44,2.026-8.305c0.167-3.494-0.264-6.954-0.827-10.389C210.747,367.847,210.135,365.019,209.44,362.233z
		 M207.976,385.996c-0.446,1.254-1.033,2.446-1.959,3.479c-1.15,1.281-1.957,1.227-2.915-0.21c-0.975-1.463-1.372-3.091-1.532-4.736
		c-0.249-2.569-0.432-5.146-0.444-7.72c-0.036-7.831,0.643-15.652,1.627-23.431l0.599-4.284c0.042-0.292,0.134-0.577,0.202-0.865
		l0.14,0.026c0.122,0.415,0.279,0.82,0.364,1.248c0.831,4.22,1.822,8.441,2.792,12.704c1.051,4.616,1.81,9.345,2.136,14.077
		C209.209,379.556,209.091,382.832,207.976,385.996z"/>
	<path fill="#B78D5C" d="M201.309,341.121c0.104-0.646,0.074-1.291-0.401-1.687c-0.505-0.42-1.018-0.173-1.512,0.198
		c-0.279,0.209-0.563,0.422-0.818,0.675c-0.574,0.573-1.164,1.133-1.703,1.719c-3.078,3.388-6.003,7.235-8.831,11.172
		c-0.752,1.04-1.415,2.173-2.068,3.304c-1.057,1.833-2.002,3.736-2.453,5.85c-0.1,0.439-0.231,0.874-0.293,1.319
		c-0.14,0.997-0.071,1.978,0.327,2.922c0.667,1.592,2.136,2.477,3.868,2.217c0.895-0.12,1.682-0.492,2.417-0.973
		c1.473-0.966,2.669-2.197,3.669-3.612c1.303-1.84,2.341-3.918,3.147-6.042c1.782-4.722,3.041-9.595,4.165-14.5
		C201.014,342.837,201.17,341.98,201.309,341.121z M198.879,344.388c-1.385,4.181-2.833,8.424-4.426,12.502
		c-0.734,1.885-1.734,3.642-2.914,5.291c-0.8,1.119-1.726,2.124-2.883,2.897c-0.345,0.231-0.715,0.445-1.104,0.589
		c-0.672,0.249-1.034,0.05-1.142-0.663c-0.066-0.429-0.036-0.896,0.033-1.335c0.281-1.801,1.039-3.439,1.831-5.064
		c0.939-1.921,2.027-3.741,3.25-5.445c1.12-1.553,2.239-3.104,3.356-4.653c1.123-1.516,2.262-2.987,3.466-4.458
		c0.164-0.198,0.335-0.388,0.508-0.573c0.029-0.031,0.09-0.021,0.215-0.044C199.005,343.768,198.977,344.092,198.879,344.388z"/>
	<path fill="#B78D5C" d="M223.071,364.705c-0.402-2.185-1.264-4.194-2.22-6.136c-1.686-3.446-3.654-6.388-5.76-9.317
		c-1.053-1.439-2.141-2.81-3.249-4.127c-1.115-1.299-2.235-2.602-3.361-3.912c-0.44-0.503-0.964-0.889-1.449-1.317
		c-0.205-0.181-0.453-0.278-0.671-0.041c-0.355,0.384-0.714,0.78-0.543,1.466c0.091,0.364,0.08,0.769,0.164,1.137
		c1.773,7.795,4.037,13.82,6.076,18.145c0.892,1.922,1.983,3.769,3.153,5.576c0.644,0.981,1.501,1.899,2.345,2.701
		c0.615,0.601,1.382,1.021,2.251,1.216c1.5,0.335,2.707-0.29,3.166-1.755c0.22-0.699,0.26-1.458,0.379-2.189l-0.071-0.022
		C223.211,365.655,223.157,365.177,223.071,364.705z M220.708,367.802c-0.364-0.211-0.759-0.359-1.047-0.626
		c-0.606-0.56-1.191-1.147-1.702-1.786c-1.564-1.932-2.754-4.252-3.833-6.503c-2.205-4.673-4.098-9.294-5.515-14.269
		c-0.072-0.275-0.144-0.551-0.27-1.03c0.239,0.247,0.354,0.339,0.442,0.459c1.111,1.558,2.262,3.03,3.413,4.538
		c1.151,1.516,2.301,3.075,3.42,4.707c0.967,1.429,1.872,2.862,2.68,4.348c0.809,1.498,1.521,3.073,2.101,4.739
		c0.359,1.034,0.594,2.129,0.79,3.214C221.319,366.32,221.279,367.082,220.708,367.802z"/>
	<path fill="#B78D5C" d="M166.462,333.272c-0.716-0.106-1.174,0.429-1.531,1.096c-1.187,2.215-2.444,4.396-3.553,6.652
		c-1.827,3.716-3.556,7.483-5.339,11.233c-1.186,2.851-2.374,5.706-3.562,8.562c-1.347,3.248-2.548,6.549-3.327,10
		c-0.412,1.829-0.681,3.687-0.492,5.622c0.115,1.229,0.434,2.371,1.147,3.466c0.55,0.835,1.264,1.538,2.245,1.992
		c1.399,0.648,2.741,0.571,4.01,0.064c1.243-0.523,2.231-1.342,3.114-2.248c2.065-2.123,3.413-4.637,4.391-7.333
		c1.19-3.289,1.799-6.723,2.276-10.172c0.397-2.889,0.648-5.773,0.809-8.641c0.172-2.9,0.26-5.805,0.305-8.684
		c0.037-2.368,0.221-4.728,0.36-7.068c0.059-0.993,0.088-1.986,0.071-2.961C167.364,333.863,167.052,333.367,166.462,333.272z
		 M165.281,339.822c-0.458,4.274-0.762,8.598-1.096,12.956c-0.362,4.719-1.035,9.463-2.121,14.076
		c-0.754,3.193-1.834,6.285-3.838,8.98c-0.797,1.066-1.711,2.032-2.903,2.743c-1.48,0.883-2.236,0.593-2.728-1.064
		c-0.5-1.686-0.399-3.359-0.064-4.977c0.522-2.527,1.11-5.043,1.861-7.505c2.286-7.494,5.26-14.777,8.501-21.909l1.839-3.907
		c0.126-0.266,0.297-0.508,0.447-0.761l0.126,0.066C165.297,338.955,165.327,339.388,165.281,339.822z"/>
	<path fill="#B78D5C" d="M155.64,345.921c3.104-3.984,5.75-8.267,8.278-12.62c0.435-0.751,0.839-1.523,1.226-2.302
		c0.291-0.586,0.454-1.21,0.116-1.728c-0.358-0.548-0.922-0.463-1.503-0.254c-0.329,0.118-0.663,0.237-0.982,0.405
		c-0.722,0.388-1.427,0.697-2.126,1.118c-1.979,1.174-3.948,2.454-5.909,3.814c-1.968,1.37-3.917,2.8-5.836,4.232
		c-1.029,0.773-1.999,1.661-2.959,2.55c-1.555,1.441-3.023,2.98-4.08,4.865c-0.225,0.39-0.479,0.767-0.671,1.172
		c-0.429,0.91-0.653,1.866-0.551,2.883c0.18,1.691,1.298,3.013,3.028,3.279c0.892,0.148,1.756,0.023,2.601-0.221
		c1.696-0.49,3.206-1.315,4.581-2.373C152.641,349.374,154.233,347.727,155.64,345.921z M145.956,350.134
		c-0.399,0.119-0.817,0.216-1.231,0.24c-0.721,0.049-0.994-0.275-0.881-0.995c0.069-0.437,0.235-0.872,0.43-1.27
		c0.805-1.641,2.009-2.97,3.236-4.266c1.464-1.55,3.047-2.974,4.722-4.242c3.091-2.352,6.076-4.641,9.215-6.675
		c0.215-0.141,0.435-0.272,0.655-0.398c0.037-0.021,0.093,0.007,0.219,0.021c-0.162,0.302-0.285,0.603-0.466,0.857
		c-2.574,3.608-5.189,7.179-7.926,10.611c-1.261,1.584-2.739,2.969-4.356,4.197C148.475,349.047,147.292,349.735,145.956,350.134z"
		/>
	<path fill="#B78D5C" d="M171.954,333.205c-0.27-0.61-0.655-1.133-0.991-1.684c-0.142-0.233-0.349-0.398-0.627-0.237
		c-0.453,0.263-0.911,0.535-0.952,1.241c-0.021,0.374-0.152,0.758-0.181,1.134c-0.62,7.967-0.24,14.386,0.427,19.123
		c0.284,2.101,0.78,4.189,1.365,6.263c0.321,1.146,0.881,2.236,1.45,3.258c0.411,0.757,1.019,1.387,1.792,1.831
		c1.334,0.766,2.671,0.528,3.539-0.735c0.415-0.603,0.676-1.316,1.004-1.98l-0.061-0.042c0.073-0.475,0.162-0.947,0.218-1.424
		c0.258-2.208,0.025-4.384-0.316-6.525C177.395,345.929,174.734,339.416,171.954,333.205z M176.879,360.241
		c-0.089,0.734-0.35,1.451-1.108,1.969c-0.286-0.31-0.619-0.569-0.815-0.91c-0.414-0.716-0.8-1.451-1.099-2.213
		c-0.926-2.308-1.386-4.849-1.747-7.332c-0.725-5.12-1.16-10.092-1.04-15.259c0.013-0.284,0.025-0.569,0.047-1.064
		c0.155,0.306,0.238,0.428,0.285,0.569c0.599,1.815,1.259,3.558,1.909,5.34c0.647,1.788,1.283,3.619,1.868,5.509
		c1.011,3.265,1.769,6.534,1.89,10.085C177.108,358.029,177.011,359.145,176.879,360.241z"/>
	<path fill="#B78D5C" d="M133.614,317.769c0.342-0.924,0.669-1.872,0.954-2.827c0.288-0.972,0.138-1.543-0.408-1.797
		c-0.66-0.307-1.257,0.071-1.795,0.603c-1.788,1.768-3.634,3.484-5.36,5.314c-2.842,3.014-5.604,6.105-8.414,9.163
		c-1.972,2.374-3.948,4.753-5.924,7.131c-2.244,2.707-4.362,5.505-6.12,8.568c-0.931,1.623-1.733,3.316-2.118,5.214
		c-0.239,1.191-0.316,2.428,0.039,3.686c0.282,0.954,0.76,1.83,1.567,2.546c1.151,1.021,2.46,1.335,3.826,1.218
		c1.328-0.116,2.486-0.572,3.607-1.191c2.604-1.426,4.636-3.432,6.368-5.719c2.11-2.791,3.705-5.888,5.176-9.037
		c2.439-5.252,4.427-10.792,6.191-16.24C131.93,322.155,132.797,319.96,133.614,317.769z M126.224,331.127
		c-1.734,4.398-3.759,8.705-6.176,12.814c-1.675,2.842-3.614,5.468-6.312,7.437c-1.078,0.786-2.239,1.442-3.591,1.777
		c-1.679,0.415-2.318-0.08-2.304-1.801c0.015-1.75,0.604-3.315,1.399-4.76c1.255-2.272,2.569-4.515,4.019-6.653
		c4.414-6.509,9.383-12.571,14.59-18.438l2.91-3.193c0.199-0.217,0.434-0.398,0.652-0.596l0.097,0.105
		c-0.139,0.417-0.243,0.846-0.418,1.251C129.357,323.065,127.832,327.059,126.224,331.127z"/>
	<path fill="#B78D5C" d="M106.872,318.088c-0.33,0.307-0.684,0.592-0.985,0.924c-0.677,0.743-1.169,1.59-1.366,2.587
		c-0.333,1.677,0.411,3.207,1.927,4.028c0.778,0.435,1.671,0.537,2.547,0.556c1.774,0.021,3.466-0.331,5.098-0.943
		c2.13-0.798,4.113-1.878,5.974-3.172c4.123-2.875,7.936-6.212,11.633-9.626c0.638-0.59,1.252-1.209,1.851-1.84
		c0.451-0.475,0.789-1.022,0.614-1.612c-0.182-0.629-0.762-0.698-1.368-0.683c-0.342,0.007-0.689,0.014-1.037,0.072
		c-0.781,0.131-1.571,0.245-2.361,0.438c-2.249,0.549-4.518,1.203-6.803,1.934c-2.268,0.714-4.512,1.468-6.796,2.3
		c-1.215,0.44-2.407,1.007-3.589,1.578C110.295,315.552,108.436,316.597,106.872,318.088z M118.658,315.027
		c3.648-1.338,7.226-2.702,10.792-3.68c0.244-0.067,0.488-0.122,0.731-0.173c0.042-0.009,0.084,0.037,0.197,0.091
		c-0.244,0.241-0.45,0.492-0.697,0.68c-3.492,2.655-7.028,5.281-10.672,7.775c-1.675,1.146-3.5,2.04-5.414,2.745
		c-1.298,0.478-2.639,0.795-4.037,0.788c-0.408-0.011-0.827-0.05-1.221-0.158c-0.681-0.187-0.858-0.565-0.539-1.22
		c0.193-0.396,0.479-0.763,0.782-1.086c1.251-1.331,2.796-2.251,4.353-3.133C114.79,316.603,116.667,315.762,118.658,315.027z"/>
	<path fill="#B78D5C" d="M139.973,319.862c-0.169-1.711-0.328-3.464-0.546-5.144c-0.082-0.659-0.301-1.268-0.463-1.89
		c-0.069-0.263-0.22-0.48-0.535-0.407c-0.513,0.12-1.034,0.247-1.279,0.907c-0.13,0.35-0.367,0.678-0.505,1.029
		c-1.46,3.705-2.565,7.109-3.411,10.191c-0.848,3.085-1.438,5.85-1.816,8.207c-0.344,2.084-0.483,4.218-0.531,6.364
		c-0.027,1.182,0.192,2.381,0.404,3.567c0.162,0.853,0.566,1.622,1.174,2.273c1.053,1.118,2.405,1.279,3.61,0.326
		c0.576-0.454,1.037-1.058,1.548-1.596l-0.046-0.058c0.21-0.431,0.435-0.856,0.629-1.295c0.899-2.031,1.318-4.173,1.622-6.314
		c0.267-1.885,0.421-3.73,0.486-5.535c0.064-1.804,0.09-3.645,0.023-5.41C140.275,323.303,140.148,321.565,139.973,319.862z
		 M137.304,338.915c-0.285,1.056-0.708,2.091-1.158,3.098c-0.302,0.674-0.764,1.282-1.643,1.556
		c-0.182-0.379-0.425-0.722-0.514-1.104c-0.186-0.803-0.339-1.615-0.401-2.43c-0.163-2.535,0.127-5.068,0.513-7.543
		c0.398-2.537,0.869-5.037,1.432-7.499c0.596-2.506,1.283-4.971,2.081-7.395c0.095-0.267,0.191-0.534,0.357-1
		c0.06,0.336,0.104,0.476,0.109,0.624c0.092,3.806,0.403,7.537,0.413,11.482C138.482,332.144,138.225,335.51,137.304,338.915z"/>
	<path fill="#B78D5C" d="M107.287,288.662c0.616-0.794,1.207-1.605,1.752-2.429c0.557-0.842,0.575-1.427,0.122-1.826
		c-0.548-0.482-1.232-0.294-1.903,0.057c-2.231,1.167-4.502,2.267-6.69,3.511c-3.603,2.048-7.151,4.193-10.735,6.292
		c-2.582,1.69-5.168,3.384-7.754,5.077c-2.938,1.928-5.783,3.98-8.357,6.39c-1.363,1.277-2.622,2.658-3.54,4.355
		c-0.578,1.068-0.993,2.216-1.034,3.531c-0.031,1.009,0.134,2.011,0.717,2.917c0.813,1.306,1.982,1.983,3.33,2.266
		c1.308,0.275,2.567,0.167,3.797-0.079c2.87-0.571,5.4-1.894,7.732-3.576c2.834-2.048,5.261-4.536,7.618-7.136
		c3.933-4.351,7.391-9.015,10.671-13.703C104.353,292.385,105.825,290.542,107.287,288.662z M86.648,309.697
		c-2.431,2.223-5.055,4.165-8.22,5.262c-1.264,0.437-2.57,0.727-3.968,0.655c-1.735-0.09-2.208-0.747-1.698-2.381
		c0.554-1.687,1.592-3.022,2.784-4.175c1.863-1.802,3.773-3.558,5.784-5.175c6.123-4.924,12.65-9.259,19.351-13.341l3.721-2.2
		c0.254-0.149,0.533-0.254,0.8-0.379l0.063,0.128c-0.253,0.357-0.477,0.736-0.762,1.07c-2.821,3.304-5.535,6.731-8.219,10.117
		C93.349,302.963,90.159,306.481,86.648,309.697z"/>
	<path fill="#B78D5C" d="M81.25,289.499c1.701,0.535,3.432,0.69,5.178,0.581c2.28-0.143,4.5-0.597,6.663-1.291
		c4.787-1.539,9.34-3.568,13.901-5.761c0.784-0.377,1.553-0.79,2.311-1.217c0.573-0.323,1.05-0.743,1.058-1.358
		c0.028-0.664-0.473-0.919-1.059-1.082c-0.331-0.091-0.668-0.185-1.02-0.23c-0.79-0.101-1.584-0.219-2.4-0.264
		c-4.697-0.227-9.369-0.2-14.241,0.057c-1.296,0.067-2.606,0.26-3.907,0.459c-2.108,0.324-4.198,0.777-6.131,1.742
		c-0.406,0.196-0.828,0.365-1.214,0.593c-0.865,0.511-1.582,1.173-2.058,2.066c-0.803,1.5-0.527,3.175,0.696,4.398
		C79.661,288.828,80.428,289.219,81.25,289.499z M81.405,285.012c0.299-0.321,0.68-0.587,1.065-0.807
		c1.587-0.904,3.337-1.331,5.089-1.718c2.076-0.457,4.161-0.732,6.237-0.828c3.813-0.172,7.711-0.469,11.408-0.36
		c0.254,0.007,0.505,0.024,0.754,0.046c0.042,0.004,0.07,0.059,0.164,0.143c-0.304,0.158-0.575,0.338-0.866,0.445
		c-4.126,1.518-8.285,2.996-12.509,4.315c-1.942,0.606-3.956,0.929-6.001,1.045c-1.401,0.087-2.737-0.025-4.044-0.458
		c-0.39-0.129-0.782-0.288-1.129-0.506C80.972,285.954,80.91,285.543,81.405,285.012z"/>
	<path fill="#B78D5C" d="M104.468,313.493c1.453-1.676,2.475-3.595,3.386-5.545c1.568-3.408,2.812-6.92,3.706-10.323
		c0.859-3.38,1.603-6.832,2.162-10.165c0.11-0.65,0.074-1.293,0.095-1.931c0.013-0.273-0.053-0.534-0.37-0.56
		c-0.513-0.044-1.037-0.082-1.474,0.482c-0.231,0.3-0.555,0.544-0.795,0.841c-5.015,6.259-8.186,11.695-10.414,16.069
		c-0.952,1.9-1.685,3.881-2.355,5.913c-0.367,1.118-0.501,2.322-0.64,3.513c-0.095,0.863,0.016,1.757,0.412,2.552
		c0.691,1.367,1.945,1.909,3.382,1.349c0.686-0.267,1.305-0.71,1.952-1.075l-0.027-0.069
		C103.815,314.195,104.154,313.855,104.468,313.493z M100.547,313.604c-0.066-0.413-0.201-0.81-0.176-1.199
		c0.054-0.818,0.178-1.666,0.367-2.471c0.594-2.477,1.588-4.793,2.677-7.042c0.557-1.15,1.129-2.286,1.718-3.408
		c0.607-1.135,1.238-2.26,1.885-3.366c1.294-2.213,2.665-4.362,4.13-6.439c0.168-0.227,0.337-0.454,0.631-0.849
		c-0.039,0.337-0.036,0.483-0.074,0.625l-1.45,5.514c-0.493,1.86-0.945,3.694-1.515,5.578c-0.961,3.238-2.311,6.477-4.15,9.429
		c-0.58,0.923-1.286,1.788-2.01,2.617C102.093,313.15,101.472,313.596,100.547,313.604z"/>
	<path fill="#B78D5C" d="M84.939,257.282c1.87-1.445,3.862-2.782,5.791-4.137c0.821-0.575,1.623-1.173,2.384-1.798
		c0.778-0.638,0.965-1.19,0.646-1.702c-0.386-0.62-1.097-0.642-1.842-0.506c-2.478,0.455-4.975,0.833-7.434,1.373
		c-4.049,0.889-8.074,1.886-12.12,2.83c-2.966,0.849-5.937,1.7-8.909,2.551c-3.377,0.971-6.7,2.088-9.868,3.626
		c-1.678,0.816-3.286,1.761-4.66,3.109c-0.864,0.849-1.596,1.821-2.018,3.065c-0.324,0.955-0.444,1.956-0.206,3.012
		c0.383,1.492,1.321,2.48,2.529,3.15c1.176,0.649,2.415,0.917,3.666,1.045c2.926,0.299,5.724-0.212,8.441-1.128
		c3.313-1.12,6.387-2.788,9.393-4.57C75.768,264.211,80.436,260.783,84.939,257.282z M55.369,269.732
		c-1.34,0.044-2.677-0.065-3.997-0.546c-1.645-0.596-1.905-1.364-0.885-2.791c1.025-1.448,2.406-2.414,3.885-3.163
		c2.31-1.17,4.651-2.281,7.049-3.23c7.301-2.889,14.818-5.096,22.429-7.011l4.206-1c0.287-0.067,0.585-0.085,0.877-0.126
		l0.024,0.141c-0.346,0.265-0.67,0.56-1.041,0.795c-3.645,2.311-7.279,4.789-10.872,7.236c-3.884,2.649-7.963,5.064-12.264,7.097
		C61.804,268.539,58.723,269.619,55.369,269.732z"/>
	<path fill="#B78D5C" d="M65.618,246.236c1.394,1.03,3.064,1.679,4.751,2.094c2.225,0.538,4.485,0.761,6.759,0.739
		c5.026-0.051,10.009-0.648,14.977-1.382c0.856-0.127,1.711-0.293,2.56-0.476c0.639-0.138,1.231-0.4,1.439-0.989
		c0.22-0.625-0.186-1.015-0.701-1.343c-0.291-0.185-0.586-0.373-0.911-0.52c-0.728-0.329-1.454-0.677-2.224-0.96
		c-1.094-0.404-2.213-0.787-3.335-1.158c-1.096-0.376-2.211-0.736-3.34-1.082c-2.259-0.692-4.578-1.328-6.94-1.928
		c-1.26-0.32-2.57-0.524-3.874-0.719c-2.124-0.314-4.218-0.506-6.353-0.157c-0.445,0.067-0.898,0.103-1.335,0.206
		c-0.977,0.231-1.889,0.656-2.597,1.365c-1.207,1.194-1.434,2.874-0.622,4.403C64.294,245.125,64.914,245.725,65.618,246.236z
		 M67.081,242c0.38-0.218,0.822-0.359,1.255-0.454c1.783-0.393,3.583-0.282,5.373-0.132c2.121,0.179,4.197,0.534,6.213,1.058
		c3.668,0.972,7.474,1.844,10.995,3.037c0.241,0.081,0.477,0.172,0.71,0.267c0.039,0.016,0.05,0.077,0.115,0.185
		c-0.337,0.061-0.649,0.153-0.959,0.169c-4.395,0.229-8.811,0.409-13.242,0.418c-2.034,0.004-4.066-0.283-6.047-0.779
		c-1.322-0.341-2.581-0.841-3.704-1.641c-0.335-0.239-0.664-0.507-0.933-0.817C66.39,242.771,66.452,242.36,67.081,242z"/>
	<path fill="#B78D5C" d="M86.569,258.535c-2.409,2.062-4.424,4.004-6.117,5.758c-0.742,0.769-1.451,1.578-2.132,2.414
		c-0.656,0.827-1.285,1.681-1.898,2.55c-0.675,0.957-1.152,2.065-1.628,3.16c-0.348,0.798-0.475,1.673-0.357,2.56
		c0.177,1.544,1.293,2.4,2.815,2.294c0.737-0.054,1.459-0.295,2.186-0.454l-0.007-0.073c0.415-0.238,0.84-0.463,1.245-0.716
		c1.879-1.172,3.414-2.701,4.851-4.292c2.58-2.825,4.754-5.791,6.599-8.77c0.901-1.482,1.823-3.007,2.675-4.524
		c0.851-1.517,1.644-3.032,2.395-4.535c0.281-0.583,0.462-1.213,0.7-1.824c0.099-0.258,0.105-0.524-0.189-0.643
		c-0.479-0.192-0.971-0.383-1.554,0.026c-0.309,0.217-0.691,0.355-1.006,0.567c-1.667,1.124-3.221,2.237-4.662,3.328
		C89.077,256.443,87.774,257.504,86.569,258.535z M94.936,254.642c-0.135,0.309-0.174,0.448-0.252,0.573l-2.985,4.822l-1.56,2.453
		c-0.504,0.81-1.024,1.622-1.564,2.434c-1.868,2.806-4.055,5.477-6.756,7.786c-0.843,0.718-1.763,1.332-2.7,1.911
		c-0.624,0.386-1.358,0.633-2.238,0.365c0.071-0.419,0.074-0.844,0.223-1.213c0.313-0.774,0.658-1.539,1.078-2.253
		c1.285-2.186,2.909-4.101,4.603-5.923c3.53-3.751,7.3-7.245,11.3-10.333C94.313,255.098,94.541,254.932,94.936,254.642z"/>
	<path fill="#B78D5C" d="M51.839,223.422c3.496-0.091,6.926-0.775,10.325-1.59c5.695-1.37,11.169-3.27,16.508-5.293
		c2.175-0.832,4.504-1.525,6.74-2.255c0.955-0.31,1.899-0.647,2.812-1.021c0.933-0.383,1.276-0.857,1.124-1.444
		c-0.184-0.709-0.856-0.94-1.608-1.028c-2.501-0.293-4.998-0.665-7.507-0.871c-4.131-0.338-8.271-0.566-12.415-0.851
		c-3.085-0.058-6.176-0.117-9.266-0.175c-3.514-0.063-7.019,0.03-10.501,0.568c-1.845,0.286-3.661,0.716-5.373,1.599
		c-1.078,0.556-2.065,1.267-2.837,2.328c-0.588,0.814-1.015,1.732-1.081,2.807c-0.057,1.533,0.533,2.749,1.492,3.742
		c0.93,0.964,2.034,1.583,3.192,2.073C46.149,223.157,48.972,223.494,51.839,223.422z M43.085,218.023
		c-1.377-1.051-1.44-1.858-0.037-2.918c1.409-1.078,3.014-1.594,4.649-1.875c2.554-0.437,5.119-0.81,7.691-1.012
		c7.83-0.614,15.665-0.517,23.501-0.111l4.314,0.281c0.294,0.021,0.583,0.091,0.875,0.138l-0.019,0.142
		c-0.41,0.152-0.807,0.34-1.231,0.456c-4.159,1.141-8.395,2.442-12.513,3.724c-4.494,1.389-9.106,2.492-13.816,3.165
		c-3.259,0.463-6.521,0.585-9.758-0.294C45.449,219.366,44.203,218.87,43.085,218.023z"/>
	<path fill="#B78D5C" d="M62.313,197.965c0.168,0.882,0.574,1.636,1.105,2.331c1.106,1.4,2.448,2.503,3.953,3.396
		c1.965,1.166,4.055,2.041,6.234,2.687c4.817,1.425,9.742,2.316,14.719,3.073c0.86,0.13,1.729,0.223,2.596,0.297
		c0.661,0.057,1.271-0.024,1.651-0.527c0.397-0.534,0.126-1.028-0.267-1.493c-0.222-0.263-0.448-0.53-0.714-0.766
		c-0.596-0.529-1.186-1.075-1.836-1.572c-3.756-2.837-7.637-5.446-11.8-7.976c-1.107-0.674-2.298-1.252-3.485-1.82
		c-1.924-0.919-3.905-1.72-6.046-2.011c-0.445-0.066-0.89-0.164-1.337-0.193c-1.002-0.065-1.969,0.079-2.866,0.549
		C62.711,194.727,61.993,196.266,62.313,197.965z M66.074,196.675c0.428-0.097,0.893-0.102,1.335-0.067
		c1.82,0.146,3.507,0.779,5.172,1.445c1.972,0.791,3.849,1.738,5.617,2.828c3.256,2.006,6.64,3.958,9.636,6.133
		c0.206,0.149,0.404,0.305,0.598,0.464c0.033,0.027,0.025,0.089,0.055,0.211c-0.34-0.04-0.665-0.044-0.966-0.12
		c-4.264-1.071-8.534-2.193-12.768-3.483c-1.946-0.593-3.792-1.461-5.548-2.516c-1.206-0.717-2.258-1.563-3.088-2.656
		c-0.249-0.326-0.483-0.678-0.647-1.054C65.184,197.21,65.365,196.835,66.074,196.675z"/>
	<path fill="#B78D5C" d="M72.308,221.923c-0.936,0.516-1.855,1.08-2.75,1.678c-0.871,0.596-1.724,1.226-2.566,1.875
		c-0.927,0.715-1.71,1.632-2.488,2.536c-0.568,0.659-0.948,1.456-1.097,2.339c-0.285,1.526,0.502,2.676,2.002,3.025
		c0.72,0.167,1.481,0.151,2.224,0.214l0.015-0.072c0.467-0.104,0.939-0.193,1.401-0.314c2.142-0.562,4.057-1.567,5.9-2.661
		c3.326-1.937,6.259-4.127,8.907-6.431c1.298-1.151,2.627-2.339,3.892-3.542c1.262-1.203,2.469-2.422,3.632-3.643
		c0.454-0.477,0.772-1.029,1.191-1.545c0.171-0.218,0.257-0.473,0.011-0.673c-0.4-0.327-0.813-0.655-1.491-0.434
		c-0.359,0.117-0.765,0.137-1.13,0.248c-3.883,1.174-7.196,2.436-10.104,3.698C76.945,219.483,74.445,220.746,72.308,221.923z
		 M89.003,216.963c-0.22,0.257-0.3,0.379-0.41,0.475l-4.28,3.741l-2.215,1.888c-0.721,0.626-1.457,1.249-2.213,1.865
		c-2.613,2.13-5.491,4.036-8.753,5.44c-1.01,0.435-2.098,0.752-3.157,1.027c-0.707,0.183-1.492,0.203-2.233-0.316
		c0.192-0.38,0.32-0.785,0.571-1.092c0.528-0.647,1.083-1.275,1.695-1.832c1.873-1.708,3.99-3.057,6.147-4.297
		c4.478-2.542,9.117-4.773,13.853-6.553C88.272,217.216,88.539,217.123,89.003,216.963z"/>
	<path fill="#B78D5C" d="M49.316,170.619c2.245,1.892,4.843,3.043,7.604,3.816c3.368,0.939,6.85,1.291,10.342,1.51
		c5.851,0.362,11.648,0.158,17.351-0.198c2.328-0.152,4.722-0.137,7.089-0.168c1.004-0.013,2.006-0.055,2.989-0.142
		c1.004-0.089,1.473-0.438,1.5-1.041c0.034-0.728-0.54-1.146-1.233-1.453c-2.303-1.018-4.578-2.11-6.914-3.048
		c-3.847-1.543-7.734-2.984-11.609-4.481c-2.93-0.967-5.865-1.936-8.801-2.905c-3.339-1.098-6.715-2.045-10.202-2.558
		c-1.848-0.27-3.711-0.395-5.609-0.055c-1.195,0.215-2.35,0.605-3.403,1.395c-0.796,0.61-1.504,1.355-1.848,2.379
		c-0.511,1.453-0.31,2.792,0.311,4.026C47.485,168.892,48.356,169.81,49.316,170.619z M50.976,163.88
		c1.667-0.618,3.354-0.639,5-0.425c2.57,0.334,5.132,0.734,7.65,1.299c7.664,1.722,15.121,4.129,22.489,6.828l4.039,1.541
		c0.275,0.106,0.531,0.259,0.795,0.389l-0.06,0.129c-0.436,0.024-0.871,0.085-1.311,0.07c-4.324-0.144-8.729-0.144-13.042-0.132
		c-4.708,0.002-9.444-0.299-14.146-1.04c-3.253-0.515-6.407-1.356-9.239-3.149c-1.13-0.717-2.173-1.559-2.989-2.699
		C49.156,165.28,49.35,164.492,50.976,163.88z"/>
	<path fill="#B78D5C" d="M100.036,172.879c0.536-0.391,0.423-0.942,0.184-1.501c-0.135-0.316-0.272-0.637-0.457-0.941
		c-0.414-0.68-0.816-1.376-1.291-2.042c-2.754-3.816-5.668-7.451-8.911-11.107c-0.859-0.973-1.826-1.878-2.793-2.773
		c-1.566-1.448-3.225-2.803-5.178-3.714c-0.406-0.196-0.8-0.42-1.219-0.581c-0.943-0.361-1.904-0.508-2.899-0.326
		c-1.673,0.306-2.811,1.565-3.005,3.284c-0.101,0.892,0.072,1.737,0.364,2.554c0.626,1.658,1.595,3.115,2.765,4.412
		c1.532,1.695,3.271,3.15,5.161,4.411c4.182,2.786,8.621,5.091,13.156,7.286c0.783,0.378,1.586,0.723,2.392,1.05
		C98.919,173.141,99.528,173.247,100.036,172.879z M96.585,170.209c-0.313-0.139-0.623-0.239-0.888-0.4
		c-3.758-2.283-7.505-4.617-11.169-7.103c-1.684-1.142-3.191-2.518-4.556-4.046c-0.942-1.043-1.671-2.153-2.154-3.448
		c-0.142-0.386-0.261-0.792-0.308-1.199c-0.08-0.705,0.203-1.01,0.926-0.953c0.437,0.034,0.882,0.167,1.294,0.331
		c1.695,0.679,3.119,1.784,4.513,2.914c1.65,1.341,3.165,2.802,4.533,4.367c2.494,2.871,5.168,5.742,7.385,8.7
		c0.153,0.203,0.296,0.41,0.434,0.619C96.618,170.027,96.593,170.083,96.585,170.209z"/>
	<path fill="#B78D5C" d="M85.247,177.697c-3.159,0.346-5.924,0.816-8.316,1.312c-2.124,0.428-4.093,1.099-6.104,1.841
		c-1.099,0.411-2.121,1.058-3.134,1.693c-0.739,0.463-1.34,1.114-1.746,1.913c-0.67,1.386-0.273,2.713,1.055,3.484
		c0.638,0.37,1.371,0.577,2.061,0.855l0.036-0.064c0.478,0.037,0.955,0.09,1.433,0.109c2.214,0.089,4.346-0.31,6.432-0.816
		c7.443-1.774,13.696-4.928,19.679-8.169c0.581-0.317,1.038-0.751,1.576-1.123c0.228-0.157,0.385-0.373,0.209-0.637
		c-0.286-0.428-0.583-0.862-1.296-0.852c-0.378,0.006-0.771-0.096-1.152-0.098C91.919,177.116,88.419,177.355,85.247,177.697z
		 M93.828,179.521c-3.409,1.501-6.949,3.107-10.517,4.587c-3.126,1.267-6.468,2.238-9.973,2.631
		c-1.081,0.123-2.196,0.111-3.295,0.063c-0.736-0.033-1.472-0.24-2.06-0.959c0.272-0.311,0.51-0.662,0.846-0.881
		c0.697-0.463,1.416-0.9,2.167-1.254c2.3-1.082,4.725-1.75,7.156-2.301c2.463-0.57,5.023-1.032,7.555-1.4
		c2.534-0.367,5.065-0.634,7.598-0.782c0.282-0.009,0.564-0.019,1.055-0.035C94.074,179.369,93.962,179.462,93.828,179.521z"/>
	<path fill="#B78D5C" d="M70.165,123.218c1.592,2.475,3.734,4.346,6.143,5.902c2.939,1.895,6.158,3.261,9.423,4.502
		c5.476,2.077,11.055,3.586,16.608,4.931c2.313,0.573,4.584,1.286,6.848,1.951c0.961,0.282,1.928,0.536,2.89,0.741
		c0.983,0.209,1.53,0.01,1.731-0.561c0.243-0.691-0.183-1.261-0.755-1.759c-1.9-1.655-3.755-3.373-5.703-4.953
		c-3.214-2.607-6.5-5.131-9.757-7.704c-2.516-1.792-5.036-3.586-7.557-5.381c-2.871-2.04-5.822-3.946-8.994-5.462
		c-1.683-0.803-3.423-1.472-5.331-1.705c-1.201-0.146-2.415-0.113-3.648,0.333c-0.946,0.342-1.801,0.872-2.475,1.717
		c-0.955,1.209-1.119,2.572-0.896,3.93C68.92,121.023,69.484,122.159,70.165,123.218z M73.751,117.288
		c1.768-0.101,3.382,0.376,4.889,1.066c2.353,1.077,4.68,2.216,6.916,3.499c6.807,3.908,13.219,8.41,19.46,13.168l3.404,2.667
		c0.231,0.183,0.431,0.404,0.645,0.608l-0.095,0.107c-0.423-0.105-0.855-0.174-1.27-0.317c-4.083-1.411-8.26-2.69-12.441-3.994
		c-4.49-1.386-8.918-3.072-13.186-5.17c-2.952-1.454-5.716-3.192-7.895-5.745c-0.87-1.021-1.619-2.135-2.066-3.467
		C71.544,118.046,72.012,117.387,73.751,117.288z"/>
	<path fill="#B78D5C" d="M99.338,119.116c0.233,0.841,0.542,1.658,0.914,2.453c0.971,2.078,2.208,3.985,3.645,5.752
		c3.177,3.901,6.754,7.428,10.426,10.856c0.633,0.591,1.296,1.156,1.968,1.706c0.506,0.414,1.08,0.713,1.669,0.505
		c0.624-0.22,0.675-0.784,0.609-1.393c-0.038-0.344-0.075-0.693-0.164-1.04c-0.198-0.776-0.381-1.564-0.641-2.344
		c-1.462-4.429-3.197-8.784-5.237-13.251c-0.537-1.186-1.205-2.345-1.847-3.468c-1.052-1.829-2.221-3.596-3.825-5.046
		c-0.33-0.306-0.641-0.637-0.994-0.914c-0.793-0.621-1.679-1.055-2.7-1.188c-1.727-0.235-3.141,0.672-3.831,2.258
		c-0.353,0.828-0.431,1.69-0.388,2.562C98.986,117.44,99.118,118.286,99.338,119.116z M101.99,115.694
		c0.127-0.701,0.484-0.912,1.157-0.646c0.407,0.161,0.793,0.418,1.137,0.696c1.419,1.148,2.458,2.625,3.46,4.12
		c1.186,1.771,2.208,3.619,3.061,5.525c0.775,1.743,1.55,3.484,2.323,5.223c0.778,1.757,1.512,3.509,2.151,5.265
		c0.087,0.24,0.164,0.482,0.235,0.723c0.012,0.041-0.029,0.088-0.072,0.206c-0.258-0.225-0.524-0.412-0.73-0.645
		c-2.922-3.297-5.82-6.64-8.594-10.101c-1.274-1.59-2.326-3.364-3.141-5.195c-0.561-1.249-0.96-2.548-1.04-3.929
		C101.914,116.525,101.916,116.1,101.99,115.694z"/>
	<path fill="#B78D5C" d="M114.486,145.453c0.263-0.084,0.475-0.246,0.383-0.551c-0.149-0.496-0.307-1.001-0.989-1.201
		c-0.362-0.105-0.708-0.318-1.07-0.432c-7.723-2.441-13.875-3.376-18.749-3.853c-2.134-0.206-4.296-0.2-6.399-0.064
		c-1.168,0.068-2.331,0.386-3.483,0.695c-0.84,0.225-1.603,0.67-2.223,1.316c-1.095,1.102-1.084,2.499-0.047,3.629
		c0.501,0.543,1.139,0.958,1.716,1.429l0.053-0.051c0.445,0.177,0.885,0.369,1.335,0.529c2.086,0.741,4.238,0.991,6.377,1.124
		c3.83,0.267,7.491,0.114,10.973-0.298c3.488-0.41,6.984-0.968,10.247-1.686C113.244,145.895,113.872,145.656,114.486,145.453z
		 M110.023,144.887l-5.627,0.678l-2.894,0.308c-0.957,0.105-1.909,0.208-2.881,0.291c-3.357,0.287-6.807,0.241-10.294-0.435
		c-1.084-0.211-2.151-0.557-3.182-0.927c-0.687-0.246-1.347-0.673-1.672-1.521c0.372-0.206,0.706-0.468,1.086-0.581
		c0.8-0.237,1.613-0.444,2.432-0.56c2.509-0.356,5.017-0.279,7.497-0.089c5.15,0.435,10.213,1.195,15.124,2.399
		c0.271,0.074,0.543,0.148,1.016,0.277C110.302,144.814,110.168,144.87,110.023,144.887z"/>
	<path fill="#B78D5C" d="M140.413,111.718c-1.327-2.132-2.588-4.309-3.99-6.396c-2.309-3.437-4.711-6.814-7.071-10.229
		c-1.879-2.45-3.762-4.904-5.645-7.359c-2.144-2.788-4.406-5.477-7.01-7.877c-1.374-1.262-2.872-2.453-4.615-3.218
		c-1.102-0.488-2.268-0.806-3.57-0.734c-1,0.056-1.967,0.318-2.853,0.936c-1.261,0.883-1.879,2.062-2.036,3.458
		c-0.165,1.339,0.045,2.594,0.388,3.81c0.803,2.842,2.306,5.263,4.152,7.458c2.254,2.674,4.926,4.921,7.679,7.061
		c4.63,3.598,9.462,6.607,14.445,9.606c2.037,1.219,3.994,2.56,5.958,3.851c0.833,0.548,1.681,1.071,2.537,1.545
		c0.876,0.485,1.451,0.446,1.811-0.042C141.046,113.022,140.811,112.36,140.413,111.718z M136.643,109.995
		c-0.372-0.223-0.764-0.413-1.117-0.671c-3.482-2.536-7.084-4.965-10.699-7.437c-3.931-2.697-7.657-5.593-11.115-8.844
		c-2.393-2.253-4.525-4.725-5.866-7.813c-0.531-1.23-0.938-2.534-0.95-3.909c-0.024-1.717,0.607-2.224,2.29-1.817
		c1.713,0.414,3.113,1.34,4.349,2.439c1.931,1.716,3.818,3.484,5.578,5.364c5.356,5.726,10.165,11.909,14.738,18.29l2.473,3.549
		c0.167,0.243,0.294,0.514,0.439,0.772L136.643,109.995z"/>
	<path fill="#B78D5C" d="M135.05,97.92c1.901,4.672,4.29,9.099,6.8,13.459c0.433,0.751,0.901,1.486,1.383,2.21
		c0.363,0.545,0.823,0.997,1.443,0.965c0.657-0.034,0.867-0.563,0.979-1.169c0.063-0.343,0.127-0.69,0.143-1.05
		c0.039-0.799,0.076-1.633,0.075-2.427c-0.044-4.577-0.512-9.383-1.116-14.194c-0.156-1.274-0.441-2.556-0.731-3.83
		c-0.472-2.063-1.074-4.101-2.181-5.957c-0.226-0.39-0.426-0.798-0.682-1.166c-0.575-0.826-1.294-1.498-2.227-1.919
		c-1.571-0.713-3.249-0.361-4.343,1.005c-0.575,0.696-0.899,1.503-1.111,2.355c-0.424,1.709-0.464,3.424-0.236,5.14
		C133.555,93.601,134.194,95.811,135.05,97.92z M136.225,87.423c0.096-0.404,0.222-0.813,0.409-1.182
		c0.323-0.639,0.725-0.739,1.288-0.289c0.34,0.27,0.635,0.632,0.884,1c1.019,1.512,1.578,3.229,2.101,4.958
		c0.617,2.047,1.057,4.12,1.318,6.201c0.234,1.899,0.468,3.797,0.701,5.692c0.105,0.939,0.198,1.873,0.276,2.802
		c0.091,0.949,0.165,1.893,0.217,2.831c0.014,0.256,0.017,0.511,0.016,0.765c0,0.043-0.052,0.076-0.128,0.178
		c-0.181-0.292-0.38-0.548-0.51-0.831c-1.827-4.009-3.641-8.091-5.258-12.183c-0.743-1.881-1.204-3.849-1.46-5.859
		C135.906,90.141,135.902,88.775,136.225,87.423z"/>
	<path fill="#B78D5C" d="M139.795,116.516c-0.314-0.206-0.582-0.51-0.894-0.724c-3.304-2.261-6.394-4.111-9.223-5.631
		c-2.791-1.473-5.326-2.625-7.568-3.547c-1.967-0.809-4.029-1.429-6.123-1.966c-1.14-0.281-2.333-0.307-3.521-0.345
		c-0.865-0.027-1.719,0.18-2.495,0.622c-1.334,0.768-1.821,2.02-1.141,3.424c0.321,0.668,0.809,1.253,1.224,1.873l0.065-0.034
		c0.373,0.299,0.737,0.612,1.12,0.897c1.765,1.31,3.767,2.2,5.8,2.984c3.584,1.382,7.087,2.264,10.552,2.907
		c1.756,0.347,3.493,0.623,5.207,0.845c1.723,0.233,3.379,0.359,5.108,0.569c0.667,0.073,1.316,0.002,1.964-0.011
		c0.274-0.006,0.522-0.101,0.523-0.422C140.392,117.436,140.387,116.904,139.795,116.516z M135.754,116.516
		c-3.677-0.689-7.422-1.252-11.295-2.141c-3.279-0.693-6.551-1.737-9.677-3.399c-0.97-0.516-1.889-1.16-2.773-1.824
		c-0.592-0.445-1.081-1.03-1.147-1.941c0.414-0.09,0.807-0.246,1.202-0.245c0.83,0.004,1.663,0.041,2.477,0.166
		c2.492,0.384,4.846,1.172,7.207,2.133c4.809,1.942,9.358,4.073,13.744,6.716c0.24,0.153,0.481,0.307,0.9,0.574
		C136.049,116.535,135.901,116.545,135.754,116.516z"/>
	<path fill="#B78D5C" d="M154.9,74.004c1.677,2.392,3.446,4.655,5.291,6.891c1.85,2.248,3.759,4.428,5.685,6.568
		c1.583,1.758,3.053,3.611,4.544,5.417c0.632,0.767,1.286,1.513,1.962,2.215c0.688,0.708,1.265,0.89,1.756,0.542
		c0.596-0.412,0.567-1.116,0.375-1.847c-0.638-2.431-1.201-4.885-1.924-7.294c-1.19-3.967-2.487-7.904-3.732-11.865
		c-1.071-2.896-2.144-5.796-3.217-8.697c-1.224-3.297-2.589-6.532-4.367-9.589c-0.943-1.619-2.01-3.163-3.465-4.45
		c-0.92-0.821-1.942-1.471-3.204-1.772c-0.97-0.235-1.971-0.263-2.998,0.074c-1.465,0.481-2.394,1.453-2.978,2.69
		c-0.569,1.196-0.724,2.494-0.757,3.752c-0.067,2.963,0.657,5.723,1.775,8.365C151.012,68.225,152.902,71.154,154.9,74.004z
		 M151.468,54.858c0.482-1.656,1.233-1.96,2.72-1.084c1.513,0.892,2.576,2.186,3.432,3.598c1.337,2.206,2.617,4.448,3.743,6.763
		c3.437,7.08,6.206,14.415,8.687,21.854l1.312,4.115c0.088,0.281,0.128,0.574,0.19,0.862l-0.14,0.03
		c-0.293-0.333-0.61-0.63-0.871-0.977c-2.572-3.44-5.29-6.812-8.01-10.229c-2.948-3.707-5.673-7.617-8.029-11.765
		c-1.62-2.854-2.938-5.866-3.294-9.178C151.068,57.524,151.08,56.193,151.468,54.858z"/>
	<path fill="#B78D5C" d="M183.817,75.912c0.16-2.114,0.188-4.242-0.319-6.343c-0.1-0.439-0.17-0.888-0.306-1.316
		c-0.304-0.959-0.791-1.812-1.557-2.487c-1.283-1.12-2.999-1.317-4.452-0.349c-0.754,0.5-1.302,1.18-1.755,1.936
		c-0.909,1.515-1.453,3.149-1.741,4.861c-0.378,2.228-0.434,4.488-0.233,6.779c0.438,5.034,1.414,9.975,2.524,14.886
		c0.192,0.846,0.422,1.687,0.669,2.521c0.186,0.628,0.491,1.195,1.089,1.344c0.634,0.157,0.989-0.291,1.273-0.84
		c0.16-0.311,0.323-0.626,0.443-0.967c0.274-0.746,0.573-1.475,0.8-2.253c0.65-2.209,1.22-4.488,1.731-6.822
		c0.256-1.167,0.496-2.348,0.725-3.538c0.236-1.164,0.459-2.341,0.673-3.529C183.611,78.528,183.718,77.217,183.817,75.912z
		 M180.253,81.31c-0.667,3.823-1.287,7.556-2.211,11.156c-0.062,0.25-0.133,0.496-0.209,0.739c-0.013,0.041-0.072,0.058-0.174,0.134
		c-0.087-0.332-0.201-0.636-0.241-0.945c-0.572-4.404-1.076-8.769-1.41-13.159c-0.154-2.02-0.014-4.041,0.335-6.043
		c0.236-1.359,0.636-2.669,1.343-3.873c0.211-0.359,0.451-0.715,0.739-1.015c0.495-0.527,0.919-0.46,1.324,0.138
		c0.247,0.367,0.421,0.798,0.549,1.223c0.526,1.751,0.548,3.544,0.53,5.329C180.806,77.108,180.619,79.244,180.253,81.31z"/>
	<path fill="#B78D5C" d="M145.957,83.391l0.073-0.01c0.269,0.398,0.526,0.804,0.809,1.192c1.313,1.793,2.964,3.228,4.67,4.564
		c3.018,2.375,6.067,4.17,9.228,5.895c3.149,1.698,6.259,2.991,9.423,4.389c0.612,0.262,1.25,0.381,1.87,0.555
		c0.262,0.073,0.526,0.053,0.62-0.255c0.153-0.501,0.302-1.014-0.147-1.558c-0.239-0.288-0.404-0.658-0.639-0.954
		c-4.958-6.237-9.618-10.711-13.327-13.72c-1.637-1.344-3.42-2.534-5.258-3.653c-1.008-0.607-2.174-1.053-3.284-1.411
		c-0.816-0.274-1.69-0.321-2.558-0.119c-1.498,0.348-2.315,1.434-2.091,2.952C145.452,81.981,145.745,82.681,145.957,83.391z
		 M147.621,80.761c0.42,0.032,0.84-0.005,1.216,0.11c0.79,0.242,1.572,0.517,2.31,0.872c2.247,1.056,4.326,2.632,6.273,4.191
		c4.006,3.236,7.724,6.616,11.148,10.476c0.184,0.217,0.368,0.433,0.689,0.811c-0.321-0.118-0.465-0.151-0.596-0.221l-2.517-1.344
		l-2.519-1.278c-1.69-0.867-3.401-1.772-5.114-2.757c-1.49-0.868-2.923-1.76-4.298-2.752c-1.379-0.999-2.706-2.109-3.952-3.358
		c-0.774-0.775-1.461-1.659-2.11-2.552C147.715,82.36,147.419,81.656,147.621,80.761z"/>
	<path fill="#B78D5C" d="M199.502,62.05c1.782,5.514,4.085,10.881,6.5,16.112c0.993,2.147,1.85,4.351,2.741,6.517
		c0.378,0.919,0.782,1.825,1.222,2.695c0.448,0.876,0.949,1.224,1.523,1.036c0.694-0.216,0.875-0.898,0.908-1.653
		c0.109-2.511,0.296-5.021,0.317-7.536c0.034-4.141-0.043-8.285-0.064-12.437c-0.169-3.083-0.338-6.171-0.507-9.259
		c-0.196-3.511-0.546-7.005-1.34-10.452c-0.421-1.826-0.984-3.616-1.99-5.277c-0.634-1.057-1.416-1.977-2.531-2.638
		c-0.855-0.512-1.801-0.834-2.88-0.815c-1.538,0.027-2.711,0.68-3.633,1.69c-0.896,0.965-1.43,2.151-1.833,3.349
		c-0.941,2.813-1.067,5.664-0.783,8.519C197.503,55.381,198.44,58.738,199.502,62.05z M200.468,46.49
		c0.256-1.307,0.661-2.575,1.426-3.735c0.949-1.44,1.755-1.508,2.914-0.232c1.179,1.299,1.811,2.85,2.211,4.452
		c0.624,2.503,1.184,5.023,1.574,7.567c1.189,7.778,1.668,15.605,1.839,23.445l0.037,4.318c0.001,0.294-0.048,0.586-0.073,0.88
		l-0.143-0.012c-0.182-0.406-0.398-0.779-0.544-1.189c-1.442-4.046-3.043-8.07-4.629-12.138c-1.719-4.412-3.163-8.953-4.184-13.612
		C200.192,53.008,199.828,49.763,200.468,46.49z"/>
	<path fill="#B78D5C" d="M228.228,64.901c-0.01-1.006-0.225-1.966-0.759-2.839c-0.897-1.461-2.48-2.145-4.153-1.623
		c-0.867,0.253-1.59,0.74-2.244,1.327c-1.313,1.177-2.314,2.574-3.093,4.123c-1.017,2.005-1.736,4.189-2.22,6.424
		c-1.066,4.937-1.593,9.945-1.983,14.965c-0.067,0.865-0.095,1.737-0.106,2.606c-0.008,0.655,0.117,1.287,0.648,1.606
		c0.563,0.338,1.036,0.016,1.471-0.425c0.246-0.249,0.496-0.502,0.712-0.792c0.484-0.664,0.986-1.253,1.435-1.933
		c2.552-3.808,4.88-8.073,7.091-12.363c0.589-1.141,1.077-2.361,1.554-3.577c0.772-1.971,1.423-3.994,1.553-6.151
		C228.168,65.8,228.233,65.35,228.228,64.901z M223.992,70.654c-0.643,2.04-1.449,4.003-2.407,5.873
		c-1.763,3.461-3.458,6.809-5.41,10.013c-0.133,0.221-0.275,0.434-0.419,0.644c-0.024,0.036-0.087,0.034-0.207,0.077
		c0.015-0.343-0.005-0.667,0.048-0.974c0.755-4.365,1.56-8.726,2.534-13.003c0.448-1.974,1.177-3.862,2.099-5.67
		c0.626-1.227,1.392-2.36,2.421-3.298c0.307-0.28,0.641-0.548,1.004-0.749c0.627-0.345,1.016-0.212,1.227,0.489
		c0.128,0.424,0.168,0.888,0.166,1.331C225.038,67.218,224.534,68.923,223.992,70.654z"/>
	<path fill="#B78D5C" d="M188.255,68.39c0.139,0.459,0.263,0.924,0.419,1.377c0.722,2.101,1.872,3.957,3.104,5.734
		c2.173,3.132,4.557,5.797,7.066,8.37c2.504,2.536,5.093,4.713,7.71,6.98c0.509,0.431,1.084,0.733,1.627,1.081
		c0.229,0.148,0.488,0.206,0.67-0.061c0.295-0.434,0.591-0.88,0.322-1.532c-0.143-0.346-0.192-0.748-0.329-1.1
		c-2.896-7.409-6.028-13.092-8.677-17.054c-1.165-1.766-2.514-3.428-3.938-5.038c-0.784-0.884-1.761-1.626-2.721-2.342
		c-0.697-0.501-1.518-0.802-2.405-0.863c-1.533-0.105-2.634,0.695-2.87,2.213c-0.114,0.725-0.041,1.481-0.049,2.222L188.255,68.39z
		 M190.549,66.348c0.391,0.154,0.803,0.241,1.127,0.461c0.682,0.463,1.347,0.955,1.947,1.51c1.839,1.723,3.353,3.803,4.751,5.877
		c1.433,2.135,2.788,4.292,4.049,6.484c1.26,2.185,2.438,4.513,3.501,6.824c0.112,0.261,0.224,0.523,0.419,0.978
		c-0.272-0.208-0.4-0.281-0.505-0.387c-2.659-2.754-5.414-5.217-8.109-8.14c-2.331-2.54-4.426-5.154-6.069-8.29
		c-0.509-0.968-0.903-2.015-1.258-3.06C190.165,67.907,190.091,67.146,190.549,66.348z"/>
	<path fill="#B78D5C" d="M246.135,72.415c0.27,2.871,0.615,5.775,1.004,8.626c0.318,2.348,0.49,4.711,0.705,7.047
		c0.091,0.991,0.211,1.978,0.374,2.941c0.166,0.988,0.558,1.396,1.153,1.408c0.723-0.001,1.095-0.598,1.348-1.31
		c0.84-2.367,1.755-4.711,2.514-7.109c1.248-3.948,2.392-7.932,3.592-11.906c0.744-2.997,1.49-5.999,2.236-9.001
		c0.844-3.414,1.536-6.858,1.788-10.389c0.133-1.871,0.12-3.749-0.357-5.636c-0.307-1.164-0.787-2.271-1.658-3.241
		c-0.669-0.744-1.48-1.333-2.518-1.637c-1.481-0.429-2.793-0.165-3.974,0.541c-1.151,0.711-2.003,1.662-2.74,2.692
		c-1.722,2.408-2.677,5.095-3.24,7.908c-0.683,3.431-0.77,6.918-0.724,10.399C245.679,66.665,245.863,69.554,246.135,72.415z
		 M248.674,58.587c0.267-3.273,0.869-6.482,2.447-9.461c0.63-1.182,1.387-2.267,2.458-3.15c1.33-1.094,2.121-0.919,2.856,0.647
		c0.747,1.593,0.898,3.263,0.81,4.914c-0.137,2.578-0.341,5.154-0.714,7.701c-1.135,7.752-2.974,15.372-5.111,22.923l-1.233,4.147
		c-0.085,0.282-0.219,0.551-0.329,0.825l-0.134-0.047c-0.058-0.429-0.153-0.853-0.172-1.289c-0.188-4.297-0.537-8.621-0.86-12.982
		C248.342,68.093,248.296,63.298,248.674,58.587z"/>
	<path fill="#B78D5C" d="M272.263,74.909c0.288-0.964,0.367-1.944,0.115-2.936c-0.424-1.662-1.737-2.779-3.49-2.777
		c-0.904-0.015-1.738,0.236-2.536,0.602c-1.602,0.735-2.97,1.774-4.17,3.023c-1.562,1.616-2.901,3.521-4.016,5.499
		c-2.47,4.402-4.443,9.031-6.288,13.714c-0.318,0.807-0.601,1.631-0.866,2.459c-0.2,0.623-0.267,1.265,0.143,1.727
		c0.435,0.49,0.979,0.323,1.522,0.03c0.307-0.165,0.619-0.333,0.909-0.546c0.654-0.485,1.317-0.941,1.939-1.442
		c3.549-2.886,7.023-6.269,10.404-9.719c0.9-0.916,1.726-1.938,2.542-2.959c1.321-1.655,2.541-3.395,3.304-5.417
		C271.939,75.749,272.134,75.339,272.263,74.909z M269.081,74.434c-0.551,1.745-1.538,3.228-2.567,4.722
		c-1.217,1.759-2.566,3.396-4.031,4.898l-4.016,4.1c-1.339,1.335-2.683,2.611-4.092,3.886c-0.192,0.171-0.389,0.333-0.588,0.491
		c-0.034,0.027-0.092,0.007-0.219,0.012c0.115-0.323,0.192-0.639,0.333-0.917c1.997-3.931,4.059-7.899,6.247-11.694
		c1.009-1.754,2.261-3.342,3.675-4.796c0.959-0.987,2.026-1.842,3.285-2.434c0.376-0.177,0.774-0.334,1.18-0.418
		c0.701-0.144,1.032,0.101,1.028,0.83C269.313,73.555,269.214,74.01,269.081,74.434z"/>
	<path fill="#B78D5C" d="M233.028,67.936c0.076,2.222,0.631,4.338,1.29,6.404c2.337,7.226,5.948,13.277,9.632,18.992
		c0.359,0.563,0.818,1.024,1.232,1.519c0.175,0.21,0.404,0.342,0.655,0.142c0.408-0.327,0.82-0.665,0.755-1.368
		c-0.035-0.373,0.036-0.772,0.009-1.149c-0.291-3.986-0.773-7.547-1.349-10.703c-0.574-3.166-1.268-5.804-1.945-8.141
		c-0.596-2.035-1.399-4.026-2.288-5.99c-0.488-1.09-1.208-2.075-1.922-3.001c-0.52-0.687-1.216-1.219-2.046-1.542
		c-1.434-0.558-2.719-0.122-3.389,1.257c-0.32,0.658-0.472,1.402-0.697,2.108l0.067,0.033
		C233.029,66.976,233.012,67.457,233.028,67.936z M235.82,65.231c0.329,0.264,0.697,0.47,0.943,0.777
		c0.516,0.646,1.008,1.315,1.418,2.024c1.262,2.144,2.099,4.58,2.828,6.986c0.744,2.468,1.407,4.934,1.97,7.406
		c0.281,1.238,0.539,2.468,0.765,3.718c0.223,1.266,0.419,2.534,0.586,3.804c0.03,0.283,0.06,0.566,0.113,1.06
		c-0.199-0.28-0.299-0.388-0.367-0.521c-0.863-1.71-1.783-3.311-2.691-4.987c-0.909-1.673-1.812-3.388-2.674-5.171
		c-1.491-3.07-2.731-6.194-3.382-9.685c-0.203-1.077-0.274-2.195-0.307-3.298C234.997,66.604,235.149,65.856,235.82,65.231z"/>
	<path fill="#B78D5C" d="M284.285,107.493c0.695,0.209,1.229-0.253,1.682-0.858c1.505-2.013,3.075-3.983,4.51-6.049
		c2.362-3.402,4.635-6.869,6.958-10.31c1.598-2.641,3.199-5.287,4.8-7.933c1.817-3.01,3.497-6.093,4.782-9.387
		c0.68-1.745,1.223-3.54,1.324-5.479c0.066-1.224-0.048-2.449-0.602-3.616c-0.42-0.905-1.021-1.704-1.924-2.296
		c-1.288-0.845-2.627-0.965-3.959-0.651c-1.285,0.292-2.399,0.98-3.404,1.738c-2.361,1.793-4.071,4.078-5.442,6.597
		c-1.67,3.074-2.786,6.376-3.773,9.712c-1.633,5.564-2.746,11.285-3.7,16.971c-0.389,2.332-0.922,4.636-1.407,6.927
		c-0.206,0.972-0.382,1.948-0.51,2.914C283.481,106.772,283.709,107.322,284.285,107.493z M286.444,101.173
		c1.089-4.153,2.033-8.379,3.013-12.633c1.064-4.613,2.428-9.178,4.207-13.604c1.234-3.061,2.76-5.947,5.133-8.292
		c0.948-0.936,1.997-1.755,3.283-2.284c1.597-0.655,2.302-0.258,2.542,1.45c0.243,1.738-0.107,3.375-0.679,4.924
		c-0.895,2.421-1.847,4.811-2.968,7.149c-3.4,7.096-7.413,13.83-11.69,20.404l-2.403,3.589c-0.165,0.244-0.37,0.458-0.556,0.686
		l-0.111-0.09C286.291,102.04,286.333,101.596,286.444,101.173z"/>
	<path fill="#B78D5C" d="M302.332,92.554c-1.989,1.108-3.772,2.443-5.441,4.031c-3.667,3.48-6.925,7.322-10.077,11.251
		c-0.543,0.677-1.058,1.381-1.556,2.094c-0.376,0.536-0.629,1.129-0.371,1.688c0.274,0.594,0.846,0.591,1.454,0.471
		c0.343-0.067,0.696-0.143,1.027-0.246c0.751-0.243,1.513-0.471,2.264-0.776c4.268-1.733,8.595-3.944,12.818-6.204
		c1.134-0.613,2.228-1.349,3.311-2.086c1.754-1.196,3.437-2.502,4.763-4.209c0.281-0.352,0.588-0.687,0.838-1.059
		c0.559-0.836,0.922-1.747,0.971-2.765c0.081-1.708-0.865-3.133-2.497-3.705c-0.862-0.276-1.737-0.278-2.61-0.16
		C305.471,91.115,303.852,91.71,302.332,92.554z M308.347,93.815c0.699,0.087,0.929,0.436,0.71,1.132
		c-0.132,0.421-0.361,0.826-0.613,1.191c-1.04,1.502-2.43,2.639-3.838,3.74c-1.661,1.292-3.433,2.457-5.286,3.47
		c-3.405,1.858-6.731,3.725-10.109,5.219c-0.235,0.108-0.472,0.205-0.709,0.298c-0.04,0.016-0.091-0.02-0.214-0.052
		c0.206-0.275,0.372-0.554,0.589-0.778c3.093-3.194,6.174-6.279,9.41-9.291c1.485-1.38,3.155-2.532,4.94-3.509
		c1.211-0.663,2.486-1.17,3.87-1.369C307.507,93.808,307.943,93.764,308.347,93.815z"/>
	<path fill="#B78D5C" d="M278.844,106.73c0.177,0.642,0.482,1.214,0.733,1.807c0.106,0.251,0.287,0.444,0.587,0.326
		c0.488-0.193,0.983-0.395,1.129-1.086c0.077-0.366,0.263-0.726,0.348-1.094c1.786-7.755,2.391-14.199,2.437-18.971
		c0.032-2.116-0.146-4.252-0.416-6.386c-0.153-1.165-0.53-2.356-0.938-3.453c-0.293-0.809-0.801-1.521-1.499-2.074
		c-1.206-0.954-2.564-0.917-3.613,0.204c-0.501,0.534-0.867,1.2-1.291,1.807l0.054,0.051c-0.143,0.458-0.302,0.912-0.429,1.375
		c-0.586,2.144-0.682,4.328-0.665,6.493c0.023,3.833,0.509,7.347,1.129,10.892C277.046,100.135,277.962,103.388,278.844,106.73z
		 M277.341,82.495c0.125-1.088,0.389-2.176,0.683-3.239c0.198-0.712,0.564-1.382,1.391-1.782c0.236,0.349,0.527,0.654,0.671,1.019
		c0.302,0.768,0.574,1.551,0.757,2.349c0.566,2.427,0.632,5.025,0.624,7.521c-0.035,5.141-0.373,10.168-1.258,15.247
		c-0.055,0.279-0.11,0.558-0.205,1.043c-0.108-0.325-0.172-0.457-0.199-0.604l-0.518-2.805l-0.566-2.773
		c-0.375-1.861-0.731-3.763-1.028-5.715c-0.129-0.844-0.236-1.696-0.32-2.551c-0.093-0.836-0.161-1.679-0.2-2.529
		C277.097,85.976,277.139,84.247,277.341,82.495z"/>
	<path fill="#B78D5C" d="M314.495,127.716c-0.492,0.878-0.958,1.77-1.376,2.667c-0.427,0.917-0.361,1.501,0.144,1.831
		c0.611,0.398,1.258,0.112,1.87-0.334c2.032-1.485,4.113-2.909,6.091-4.463c3.258-2.56,6.448-5.208,9.68-7.817
		c2.302-2.055,4.609-4.115,6.915-6.174c2.62-2.344,5.128-4.797,7.319-7.563c1.16-1.467,2.202-3.02,2.861-4.837
		c0.415-1.144,0.658-2.342,0.507-3.651c-0.103-1.017-0.472-1.929-1.161-2.759c-0.992-1.175-2.244-1.675-3.616-1.758
		c-1.331-0.081-2.557,0.211-3.735,0.635c-2.765,1.004-5.092,2.706-7.139,4.706c-2.5,2.447-4.535,5.272-6.454,8.165
		c-3.244,4.884-5.983,10.021-8.537,15.152C316.81,123.628,315.647,125.653,314.495,127.716z M331.778,103.855
		c2.076-2.56,4.383-4.87,7.346-6.421c1.184-0.618,2.431-1.098,3.821-1.231c1.725-0.165,2.287,0.416,2.021,2.112
		c-0.262,1.717-1.105,3.204-2.112,4.521c-1.577,2.06-3.206,4.081-4.956,5.98c-5.327,5.781-11.139,11.038-17.158,16.07l-3.352,2.727
		c-0.229,0.185-0.489,0.33-0.734,0.493l-0.081-0.118c0.198-0.391,0.364-0.8,0.596-1.174c2.318-3.705,4.437-7.445,6.613-11.214
		C326.144,111.514,328.781,107.558,331.778,103.855z"/>
	<path fill="#B78D5C" d="M314.925,137.289c0.794-0.016,1.595-0.014,2.407-0.09c2.304-0.209,4.677-0.544,7.014-0.906
		c2.326-0.354,4.682-0.785,7.062-1.268c1.269-0.257,2.534-0.642,3.79-1.033c2.034-0.633,4.03-1.391,5.798-2.634
		c0.372-0.254,0.764-0.484,1.112-0.767c0.779-0.634,1.391-1.397,1.731-2.352c0.574-1.606,0.058-3.225-1.327-4.256
		c-0.718-0.536-1.527-0.813-2.414-0.944c-1.757-0.279-3.487-0.179-5.195,0.187c-2.229,0.477-4.354,1.254-6.388,2.26
		c-4.481,2.214-8.738,4.943-12.91,7.779c-0.719,0.489-1.418,1.011-2.104,1.546c-0.517,0.403-0.932,0.894-0.843,1.501
		c0.103,0.636,0.625,0.823,1.228,0.898C314.225,137.252,314.571,137.296,314.925,137.289z M317.503,134.074
		c3.851-2.111,7.741-4.188,11.718-6.118c1.828-0.887,3.769-1.503,5.77-1.92c1.353-0.279,2.749-0.411,4.087-0.165
		c0.403,0.071,0.814,0.17,1.188,0.335c0.648,0.284,0.769,0.683,0.358,1.283c-0.249,0.363-0.585,0.682-0.933,0.957
		c-1.435,1.131-3.1,1.813-4.773,2.455c-1.983,0.759-4.001,1.341-6.036,1.741c-3.796,0.776-7.558,1.611-11.235,2.055
		c-0.251,0.031-0.502,0.05-0.751,0.065c-0.042,0.003-0.078-0.048-0.182-0.118C316.991,134.441,317.232,134.223,317.503,134.074z"/>
	<path fill="#B78D5C" d="M311.055,108.74c-0.545,1.826-0.955,3.609-1.301,5.401c-0.362,1.809-0.631,3.594-0.83,5.353
		c-0.202,1.763-0.316,3.483-0.408,5.207c-0.119,1.751-0.188,3.475-0.224,5.172c-0.014,0.662,0.115,1.295,0.186,1.931
		c0.03,0.269,0.149,0.505,0.473,0.479c0.519-0.037,1.037-0.071,1.387-0.696c0.185-0.331,0.469-0.621,0.662-0.951
		c3.974-6.884,6.384-12.808,7.896-17.422c0.646-2.006,1.094-4.091,1.456-6.202c0.2-1.162,0.158-2.377,0.121-3.578
		c-0.019-0.885-0.288-1.722-0.805-2.442c-0.88-1.256-2.197-1.611-3.533-0.846c-0.638,0.365-1.184,0.894-1.769,1.35l0.037,0.064
		c-0.272,0.395-0.557,0.782-0.814,1.186C312.4,104.62,311.67,106.673,311.055,108.74z M315.584,103.363
		c0.398-0.621,0.946-1.154,1.858-1.297c0.125,0.4,0.316,0.775,0.348,1.164c0.065,0.82,0.106,1.636,0.024,2.475
		c-0.226,2.544-0.871,4.987-1.619,7.377c-1.498,4.858-3.395,9.662-5.684,14.212c-0.133,0.25-0.267,0.499-0.499,0.934
		c-0.01-0.34-0.034-0.485-0.017-0.632l0.622-5.676c0.178-1.88,0.386-3.793,0.667-5.739c0.243-1.682,0.573-3.366,1.022-5.038
		c0.431-1.652,0.969-3.279,1.677-4.892C314.419,105.252,314.99,104.291,315.584,103.363z"/>
	<path fill="#B78D5C" d="M341.271,155.446c-1.598,1.693-3.391,3.326-5.09,4.953c-0.726,0.692-1.43,1.405-2.09,2.137
		c-0.674,0.748-0.778,1.323-0.387,1.783c0.473,0.556,1.178,0.472,1.895,0.225c2.381-0.821,4.792-1.57,7.142-2.473
		c3.87-1.487,7.698-3.077,11.557-4.617c2.805-1.285,5.615-2.573,8.425-3.86c3.193-1.467,6.311-3.071,9.214-5.067
		c1.537-1.059,2.987-2.235,4.144-3.775c0.729-0.97,1.308-2.041,1.541-3.335c0.173-0.99,0.161-2.007-0.254-3.004
		c-0.616-1.411-1.675-2.254-2.971-2.734c-1.257-0.466-2.52-0.545-3.775-0.485c-2.934,0.142-5.622,1.066-8.172,2.379
		c-3.107,1.603-5.898,3.714-8.606,5.928C349.312,147.212,345.205,151.305,341.271,155.446z M359.734,142.676
		c2.734-1.835,5.618-3.365,8.914-3.978c1.317-0.244,2.654-0.337,4.029-0.058c1.694,0.353,2.107,1.052,1.306,2.619
		c-0.799,1.586-2.02,2.749-3.371,3.712c-2.11,1.504-4.259,2.954-6.488,4.252c-6.786,3.953-13.888,7.264-21.124,10.3l-4.008,1.619
		c-0.274,0.109-0.565,0.172-0.848,0.256l-0.044-0.136c0.303-0.314,0.58-0.655,0.911-0.943c3.251-2.829,6.505-5.84,9.652-8.782
		C352.111,148.333,355.786,145.332,359.734,142.676z"/>
	<path fill="#B78D5C" d="M362.046,163.461c-1.554-0.801-3.283-1.199-5.018-1.355c-2.279-0.198-4.545-0.081-6.789,0.282
		c-4.959,0.804-9.795,2.142-14.595,3.613c-0.827,0.254-1.647,0.546-2.459,0.855c-0.611,0.232-1.158,0.581-1.275,1.195
		c-0.125,0.651,0.334,0.977,0.891,1.224c0.315,0.139,0.634,0.281,0.977,0.378c0.768,0.216,1.537,0.451,2.339,0.616
		c1.142,0.235,2.3,0.448,3.471,0.644c1.155,0.202,2.298,0.394,3.469,0.565c2.335,0.345,4.723,0.625,7.147,0.864
		c1.293,0.128,2.619,0.133,3.937,0.13c2.145-0.008,4.253-0.135,6.308-0.798c0.43-0.133,0.872-0.236,1.289-0.404
		c0.935-0.376,1.764-0.93,2.36-1.738c1.016-1.362,0.989-3.057-0.042-4.449C363.521,164.361,362.818,163.861,362.046,163.461z
		 M361.232,167.87c-0.344,0.272-0.759,0.478-1.173,0.638c-1.704,0.656-3.5,0.816-5.292,0.936c-2.123,0.141-4.229,0.102-6.298-0.113
		c-3.769-0.411-7.681-0.695-11.328-1.35c-0.25-0.044-0.497-0.099-0.741-0.157c-0.041-0.01-0.061-0.069-0.141-0.166
		c0.324-0.111,0.619-0.248,0.923-0.311c4.309-0.886,8.646-1.726,13.024-2.4c2.012-0.31,4.055-0.328,6.097-0.138
		c1.37,0.134,2.68,0.443,3.912,1.065c0.367,0.186,0.732,0.402,1.044,0.668C361.8,167.004,361.8,167.42,361.232,167.87z"/>
	<path fill="#B78D5C" d="M345.88,134.527c-0.719,0.163-1.397,0.509-2.092,0.774l0.017,0.072c-0.375,0.298-0.761,0.583-1.125,0.894
		c-1.684,1.44-2.976,3.184-4.163,4.974c-4.242,6.359-6.695,12.935-8.859,19.38c-0.207,0.627-0.248,1.257-0.402,1.902
		c-0.06,0.27-0.027,0.535,0.282,0.608c0.502,0.119,1.016,0.234,1.531-0.258c0.273-0.261,0.63-0.455,0.91-0.712
		c2.99-2.739,5.422-5.31,7.498-7.712c2.077-2.402,3.782-4.627,5.195-6.617c1.261-1.757,2.267-3.598,3.227-5.505
		c0.526-1.049,0.835-2.218,1.145-3.372c0.226-0.842,0.224-1.727-0.022-2.589C348.57,134.893,347.379,134.189,345.88,134.527z
		 M346.565,137.954c-0.196,0.814-0.425,1.622-0.734,2.392c-0.949,2.357-2.271,4.496-3.678,6.554
		c-2.887,4.216-6.132,8.258-9.619,11.911c-0.2,0.199-0.4,0.398-0.749,0.744c0.088-0.326,0.106-0.471,0.165-0.605
		c1.464-3.415,2.978-7.008,4.584-10.52c1.428-3.056,3.216-6.04,5.517-8.712c0.709-0.825,1.535-1.575,2.373-2.287
		c0.562-0.477,1.243-0.825,2.162-0.698C346.597,137.147,346.662,137.565,346.565,137.954z"/>
	<path fill="#B78D5C" d="M353.578,194.757c-2.074,1.15-4.238,2.173-6.349,3.225c-0.897,0.446-1.78,0.918-2.626,1.422
		c-0.865,0.515-1.132,1.033-0.893,1.589c0.289,0.672,0.988,0.8,1.746,0.777c2.518-0.079,5.043-0.079,7.556-0.245
		c4.137-0.274,8.265-0.657,12.407-0.985c3.06-0.396,6.125-0.793,9.19-1.19c3.484-0.455,6.937-1.062,10.299-2.108
		c1.781-0.555,3.513-1.248,5.073-2.375c0.982-0.71,1.851-1.56,2.455-2.726c0.463-0.894,0.732-1.865,0.655-2.943
		c-0.146-1.533-0.934-2.648-2.026-3.492c-1.066-0.818-2.251-1.267-3.469-1.581c-2.849-0.734-5.692-0.648-8.516-0.151
		c-3.443,0.61-6.733,1.797-9.972,3.108C363.681,189.282,358.553,191.971,353.578,194.757z M384.679,186.885
		c1.331,0.157,2.638,0.465,3.872,1.139c1.542,0.835,1.675,1.633,0.453,2.89c-1.23,1.276-2.74,2.025-4.315,2.543
		c-2.459,0.81-4.941,1.557-7.454,2.137c-7.651,1.763-15.414,2.82-23.226,3.574l-4.309,0.358c-0.294,0.023-0.591-0.004-0.886-0.007
		l-0.002-0.143c0.382-0.21,0.747-0.454,1.148-0.631c3.951-1.741,7.909-3.646,11.837-5.528c4.235-2.037,8.63-3.812,13.187-5.176
		C378.137,187.099,381.345,186.494,384.679,186.885z"/>
	<path fill="#B78D5C" d="M372.474,210.713c-0.297-0.847-0.82-1.532-1.439-2.142c-1.25-1.224-2.784-2.115-4.395-2.778
		c-2.119-0.864-4.319-1.422-6.571-1.74c-4.975-0.701-9.992-0.857-15.013-0.875c-0.865-0.003-1.735,0.033-2.602,0.087
		c-0.653,0.041-1.277,0.212-1.571,0.765c-0.311,0.587,0.031,1.035,0.491,1.437c0.26,0.227,0.523,0.458,0.822,0.652
		c0.67,0.435,1.336,0.889,2.054,1.285c1.022,0.564,2.065,1.112,3.126,1.646c1.047,0.536,2.079,1.06,3.148,1.571
		c2.128,1.023,4.325,1.998,6.569,2.943c1.197,0.504,2.462,0.9,3.721,1.287c2.041,0.625,4.12,1.125,6.281,1.096
		c0.45,0,0.904,0.031,1.351-0.006c1-0.084,1.934-0.369,2.75-0.966C372.569,213.972,373.047,212.346,372.474,210.713z
		 M368.951,212.542c-0.409,0.159-0.867,0.233-1.309,0.263c-1.822,0.124-3.584-0.253-5.331-0.667
		c-2.069-0.492-4.068-1.152-5.981-1.971c-3.476-1.51-7.136-2.94-10.425-4.65c-0.226-0.117-0.446-0.242-0.661-0.371
		c-0.037-0.022-0.038-0.084-0.086-0.201c0.343-0.01,0.665-0.054,0.973-0.024c4.38,0.432,8.772,0.914,13.154,1.566
		c2.014,0.3,3.971,0.887,5.867,1.672c1.272,0.533,2.429,1.216,3.422,2.174c0.295,0.286,0.58,0.6,0.799,0.947
		C369.749,211.882,369.627,212.28,368.951,212.542z"/>
	<path fill="#B78D5C" d="M361.948,176.267l-0.004,0.073c-0.446,0.173-0.899,0.332-1.338,0.521c-2.035,0.877-3.774,2.155-5.44,3.514
		c-2.998,2.411-5.569,5.011-7.842,7.68c-2.276,2.67-4.466,5.457-6.373,8.2c-0.364,0.534-0.646,1.133-0.969,1.701
		c-0.136,0.24-0.182,0.503,0.091,0.665c0.445,0.263,0.903,0.525,1.54,0.208c0.338-0.169,0.736-0.248,1.08-0.411
		c1.817-0.863,3.518-1.731,5.109-2.595c1.562-0.859,3.004-1.711,4.351-2.55c2.69-1.677,4.972-3.295,6.908-4.776
		c1.706-1.3,3.287-2.775,4.735-4.304c0.809-0.845,1.446-1.868,2.079-2.878c0.462-0.736,0.718-1.582,0.733-2.477
		c0.051-1.552-0.891-2.573-2.429-2.693C363.442,176.089,362.691,176.219,361.948,176.267z M364.191,178.464
		c-0.133,0.404-0.198,0.823-0.4,1.165c-0.425,0.718-0.88,1.422-1.401,2.064c-1.596,1.968-3.486,3.616-5.432,5.163
		c-4.073,3.183-8.305,6.068-12.726,8.524c-0.249,0.13-0.499,0.261-0.934,0.488c0.179-0.286,0.239-0.417,0.334-0.529l3.67-4.321
		l1.914-2.193c0.63-0.727,1.257-1.45,1.913-2.172c2.264-2.493,4.824-4.804,7.839-6.681c0.935-0.582,1.958-1.056,2.972-1.488
		C362.615,178.196,363.379,178.062,364.191,178.464z"/>
</g>
</svg>
